<?xml version="1.0" encoding="UTF-8" standalone="no"?>
<!-- Created with Inkscape (http://www.inkscape.org/) -->
<svg xmlns:dc="http://purl.org/dc/elements/1.1/" xmlns:cc="http://creativecommons.org/ns#" xmlns:rdf="http://www.w3.org/1999/02/22-rdf-syntax-ns#" xmlns:svg="http://www.w3.org/2000/svg" xmlns="http://www.w3.org/2000/svg" xmlns:sodipodi="http://sodipodi.sourceforge.net/DTD/sodipodi-0.dtd" xmlns:inkscape="http://www.inkscape.org/namespaces/inkscape" version="1.0" width="712.97992" height="997.01331" id="svg1895" inkscape:version="0.47 r22583" sodipodi:docname="ZZ.svg">
  <metadata id="metadata11">
    <rdf:RDF>
      <cc:Work rdf:about="">
        <dc:format>image/svg+xml</dc:format>
        <dc:type rdf:resource="http://purl.org/dc/dcmitype/StillImage"/>
      </cc:Work>
    </rdf:RDF>
  </metadata>
  <sodipodi:namedview pagecolor="#ffffff" bordercolor="#666666" borderopacity="1" objecttolerance="10" gridtolerance="10" guidetolerance="10" inkscape:pageopacity="0" inkscape:pageshadow="2" inkscape:window-width="1280" inkscape:window-height="1004" id="namedview9" showgrid="false" inkscape:zoom="0.66750889" inkscape:cx="440.12422" inkscape:cy="456.19719" inkscape:window-x="-8" inkscape:window-y="-8" inkscape:window-maximized="1" inkscape:current-layer="svg1895"/>
  <defs id="defs3">
    <inkscape:perspective sodipodi:type="inkscape:persp3d" inkscape:vp_x="0 : 499.99994 : 1" inkscape:vp_y="0 : 1000 : 0" inkscape:vp_z="715.97186 : 499.99994 : 1" inkscape:persp3d-origin="357.98593 : 333.33329 : 1" id="perspective13"/>
    <inkscape:perspective id="perspective2824" inkscape:persp3d-origin="0.5 : 0.33333333 : 1" inkscape:vp_z="1 : 0.5 : 1" inkscape:vp_y="0 : 1000 : 0" inkscape:vp_x="0 : 0.5 : 1" sodipodi:type="inkscape:persp3d"/>
    <inkscape:perspective id="perspective2837" inkscape:persp3d-origin="0.5 : 0.33333333 : 1" inkscape:vp_z="1 : 0.5 : 1" inkscape:vp_y="0 : 1000 : 0" inkscape:vp_x="0 : 0.5 : 1" sodipodi:type="inkscape:persp3d"/>
    <inkscape:perspective id="perspective2823" inkscape:persp3d-origin="0.5 : 0.33333333 : 1" inkscape:vp_z="1 : 0.5 : 1" inkscape:vp_y="0 : 1000 : 0" inkscape:vp_x="0 : 0.5 : 1" sodipodi:type="inkscape:persp3d"/>
  </defs>
  <path style="fill: rgb(0, 106, 78); stroke: none;" d="M 64.15625 0 C 60.68849 0 60.64539 0.44774996 59.9375 3.28125 C 59.41816 5.35995 59.874 8.0634 59 9.8125 C 58.19542 11.4227 57.24018 12.75655 56.6875 14.96875 C 56.11191 17.27245 56.06653 20.6083 53.875 21.5 C 49.9357 24.6534 51.6499 23.81625 52.46875 27.09375 C 52.65368 27.83395 54.85464 32.20815 55.28125 31.78125 C 55.75859 31.30365 56.68749 31.6748 56.6875 27.5625 C 56.6875 25.0065 58.27766 23.2159 61.34375 24.75 C 63.27565 25.7165 64.14937 25.9275 66.9375 26.625 C 69.12332 27.1718 71.45459 28.3133 73 30.375 C 74.50523 33.3874 75.40272 35.42075 77.21875 37.84375 C 78.15762 39.09635 80.00002 40.6809 80 42.5 C 80 44.5951 78.62661 47.19065 76.28125 44.84375 C 74.48415 43.04555 72.05792 42.0657 69.75 44.375 C 68.98378 45.1417 67.30335 47.94155 66 48.59375 C 65.55892 48.81435 61.3935 51.76065 61.34375 51.84375 C 60.72879 52.86935 56.02833 56.3233 55.75 57.4375 C 55.33699 59.0905 55.28127 62.10715 55.28125 64.46875 C 55.28125 67.03805 55.30025 70.05215 52.46875 71.46875 C 49.88395 72.76195 45.62758 72.0222 42.21875 72.875 C 39.63587 73.5211 37.96028 74.51915 35.6875 75.65625 C 34.79663 76.10205 28.94955 77.41985 28.6875 78.46875 C 28.14039 80.65855 27.30296 82.56825 26.8125 84.53125 C 26.11607 87.31885 26.27589 87.20675 27.28125 89.21875 C 28.14829 90.95395 29.88071 91.9128 29.15625 94.8125 C 28.94467 95.6594 28.21056 100.17385 27.28125 100.40625 C 26.92996 100.49425 20.93101 101.088 20.75 101.8125 C 20.39772 103.2225 20.24062 106.0801 19.34375 107.875 C 19.07586 108.4111 18.31611 114.2481 17.9375 114.4375 C 16.73863 115.0373 14.21873 115.9617 14.21875 117.6875 C 14.21875 120.387 13.94607 122.07 15.625 123.75 C 16.98626 125.1121 17.46877 126.05125 17.46875 128.90625 C 17.46875 130.52385 16.80838 134.3076 17.9375 135.4375 C 18.40371 135.9041 22.06848 139.1655 22.15625 139.1875 C 25.05061 139.9115 25.18106 139.414 27.28125 137.3125 C 30.45261 134.1391 29.43808 138.758 31.46875 138.25 C 32.41558 138.0132 35.16146 135.4374 36.15625 135.4375 C 41.02672 135.4375 37.41542 136.9898 40.34375 139.1875 C 41.61329 140.1402 43.96697 140.9348 45.46875 142.4375 C 46.4734 143.4428 49.35599 144.65095 50.15625 145.71875 C 51.24166 147.16675 52.47666 148.0382 53.875 149.4375 C 54.39453 149.9574 57.91289 155.96875 59 155.96875 C 60.2155 157.18495 60.90231 158.3125 62.75 158.3125 C 64.64497 158.3125 68.46754 159.6909 67.875 162.0625 C 67.46087 163.7201 65.42011 166.49505 66.46875 168.59375 C 67.25872 170.17465 69.08376 172.6143 71.625 173.25 C 76.01469 174.3482 72.798 174.92125 75.34375 177.46875 C 76.75365 178.87935 79.0836 179.3535 80 181.1875 C 80.86052 182.9096 80.54572 188.5347 81.40625 186.8125 C 82.81952 183.9842 83.32799 184.9375 87 184.9375 C 89.19577 184.9375 92.15568 185.09225 93.09375 186.34375 C 94.31071 187.96745 94.31551 191.46865 96.34375 191.46875 C 97.56556 191.46875 103.09362 192.18805 103.8125 191.46875 C 105.32798 189.95225 106.24919 188.0149 108.9375 188.6875 C 109.20106 188.7535 115.03123 190.22625 115.03125 188.21875 C 115.03125 184.62955 115.06235 184.20425 118.28125 182.59375 C 121.30314 181.08185 119.15862 183.46985 121.09375 185.40625 C 122.46969 186.78315 123.40623 188.17735 123.40625 190.53125 C 123.40625 192.62915 124.04299 196.1562 122.9375 198 C 122.50805 198.71622 121.92758 200.13622 121.59375 201.5625 C 167.06834 178.2914 218.59583 165.1875 273.15625 165.1875 C 275.09745 165.1875 277.03535 165.217 278.96875 165.25 C 278.91369 165.11597 278.86688 164.9798 278.8125 164.84375 C 277.9027 162.56765 276.03135 158.56305 276.03125 156.90625 C 276.03125 154.59225 273.6875 152.689 273.6875 150.375 L 273.6875 143.375 L 273.6875 135.90625 C 273.6875 133.48975 273.62155 131.04735 274.15625 128.90625 C 274.57285 127.23905 276.44685 123.7987 278.34375 122.375 C 280.08455 121.0685 282.09375 120.65665 282.09375 118.15625 C 282.09365 114.70075 281.1241 115.34375 277.875 115.34375 C 274.8385 115.34375 274.58035 111.625 276.96875 111.625 C 278.91315 111.625 283.51 109.28425 279.75 108.34375 C 277.1856 107.70215 276.18015 104.2626 275.09375 104.625 C 274.16045 104.9364 273.21475 105.2511 272.28125 105.5625 C 271.65225 104.3036 270.26725 101.3068 270.03125 100.1875 C 268.10455 99.969396 266.9801 100.2065 267.625 97.625 C 267.8165 96.8584 269.00025 92.2719 268.09375 91.0625 C 267.81615 90.6921 263.40635 87.8587 263.40625 87.8125 C 263.40635 85.9434 264.1088 82.5549 262.5 81.75 C 261.525 81.2622 253.19455 79.55965 253.15625 79.40625 C 252.93625 78.52575 255.2039 77.7043 254.5625 77.0625 C 253.9596 76.4592 252.6875 74.92185 252.6875 72.40625 C 252.6875 67.72395 252.73345 70.19155 250.34375 69.59375 C 249.79025 69.45535 245.2297 67.2276 244.75 68.1875 C 243.9215 69.8457 243.5625 71.21725 245.6875 73.34375 C 246.2686 73.92525 248.8275 78.4815 245.6875 76.125 C 241.58371 73.0452 243.53978 76.00055 241.5 77.53125 C 239.60888 78.95045 238.34341 80.34025 239.15625 83.59375 C 239.83799 86.32245 241.71911 86.4367 242.875 88.75 C 243.46501 89.9307 243.82195 92.4774 245.21875 93.875 C 247.92435 96.5824 245.6707 95.40205 242.40625 96.21875 C 240.97714 96.57625 237.6483 98.937146 237.28125 100.40625 C 236.92374 101.83735 237.30595 104.9624 236.8125 106.9375 C 236.21428 109.332 236.55263 110.6875 233.5625 110.6875 C 229.23457 110.6875 231.48401 106.33225 230.28125 106.03125 C 228.5831 105.60655 225.07782 106.1292 222.8125 105.5625 C 221.92199 105.3397 216.31416 104.6915 215.8125 103.6875 C 215.63395 103.3302 213.98813 98.28715 213.5 98.53125 C 211.68587 99.43895 212.24704 103.6875 210.21875 103.6875 C 206.56694 103.6875 204.03464 102.4557 200.875 100.875 C 197.43429 99.153596 195.78564 98.59955 193.40625 96.21875 C 192.85372 95.66585 188.98794 94.33005 189.21875 93.40625 C 189.87059 90.79725 189.66044 90.12135 188.28125 88.28125 C 186.73086 86.21275 184.39085 84.7231 181.75 84.0625 C 179.88774 83.5966 176.33489 83.7734 174.75 82.1875 C 172.30933 79.7452 173.39343 78.1012 171.9375 75.1875 C 170.23974 71.7898 171.00897 67.6632 170.09375 64 C 169.69686 62.4114 167.28126 58.6106 167.28125 57.4375 C 167.28125 54.4378 170.70811 56.6453 170.5625 56.0625 C 169.95378 53.6261 170.5785 52.0826 167.75 51.375 C 165.17604 50.7311 163.56252 49.44415 163.5625 46.71875 C 163.5625 43.34525 164.58037 40.9111 161.6875 40.1875 C 159.44616 39.6268 156.7841 37.95535 154.6875 36.90625 C 152.00461 35.56395 151.78399 35.8481 149.5625 33.625 C 148.23339 32.2951 149.0423 28.0438 147.21875 28.5 C 145.34421 28.9689 144.07702 30.1572 143.03125 32.25 C 142.16418 33.9853 141.34661 35.58645 140.21875 37.84375 C 139.01228 40.25805 136.82411 43.1741 141.625 44.375 C 143.8598 44.934 145.38382 45.8205 146.75 47.1875 C 148.14138 48.5798 150.38496 51.90075 148.625 52.78125 C 147.47429 53.35705 145.88296 53.79035 143.9375 51.84375 C 142.65001 50.55545 138.81247 48.14675 138.8125 49.96875 C 138.8125 53.58585 140.59442 53.53065 142.09375 56.53125 C 142.56977 57.48395 144.15629 61.5478 146.75 60.25 C 148.87598 59.1864 149.51041 57.9486 151.40625 57 C 152.82384 56.2908 156.61193 55.3396 157.03125 57.4375 C 157.14718 58.0175 158.42541 64.5889 157.03125 64.9375 C 153.47564 65.827 150.59083 66.39025 146.75 64.46875 C 144.32855 63.25715 142.58151 61.2077 140.6875 59.3125 C 139.09652 57.7205 138.1409 55.3589 134.625 56.0625 C 131.84915 56.6181 130.40622 57.04625 130.40625 59.78125 C 130.40625 62.14535 130.59906 64.58115 132.28125 65.84375 C 135.34668 68.14415 135.59416 70.55675 131.8125 67.71875 C 130.34259 66.61555 127.32384 65.10615 125.75 63.53125 C 124.92415 62.70485 124.99683 57.9276 124.34375 57.4375 C 122.25761 55.8719 117.50746 57.6564 116.875 55.125 C 116.41059 53.2661 114.95694 50.61015 114.5625 49.03125 C 113.51002 44.81875 114.06415 49.96865 111.75 49.96875 C 108.12517 49.96865 106.15623 50.3871 106.15625 46.25 C 106.15625 42.6075 104.35742 42.8061 103.8125 40.625 C 102.97741 37.2825 99.16997 37.87355 97.28125 34.09375 C 97.13174 33.79455 92.62502 25.2228 92.625 27.5625 C 92.625 30.945 90.18867 30.75225 88.40625 28.96875 C 87.60503 28.16685 86.02335 25.88705 84.6875 25.21875 C 83.98133 24.86535 78.15643 21.96935 78.15625 21.96875 C 77.47633 19.24725 74.95663 16.0364 72.5625 15.4375 C 71.17198 15.0896 66.65207 15.27425 65.5625 13.09375 C 64.77958 11.52675 64.62498 9.3799 64.625 6.5625 C 64.625 5.7922 64.9889 0 64.15625 0 z M 270.03125 100.1875 C 270.44235 100.2335 270.86825 100.28755 271.34375 100.40625 C 271.68105 100.49125 270.65235 100.1836 270.40625 99.9375 C 270.00955 99.5405 269.93715 99.740996 270.03125 100.1875 z M 64.84375 232.84375 C 64.607912 232.869 64.513143 233.05231 64.625 233.5 C 65.09824 234.4471 65.74275 235.75155 66 236.78125 C 66.04692 236.96904 66.086864 237.15221 66.125 237.34375 C 67.11326 236.55906 68.096725 235.77379 69.09375 235 C 67.338505 234.08393 65.512788 232.77213 64.84375 232.84375 z M 489.4375 235.09375 C 489.22172 235.10882 489.01868 235.19996 488.84375 235.375 C 486.60415 237.616 487.03485 238.625 483.21875 238.625 L 481.8125 238.625 C 532.4433 279.3367 570.938 334.53855 591 397.90625 C 591.01996 396.96397 591.03125 396.00953 591.03125 395.0625 L 591.03125 388.0625 C 591.03135 385.2712 590.09375 384.5045 590.09375 382 C 590.09365 380.1024 589.5954 376.78735 591.5 376.40625 C 593.7178 375.96245 593.97595 376.53695 596.15625 378.71875 C 597.54425 380.10755 600.375 382.80405 600.375 378.71875 C 600.375 376.13385 599.8859 374.45085 599.4375 372.65625 C 598.4987 368.89875 599.11265 370.00435 602.21875 370.78125 C 604.61575 371.38095 607.47195 371.25 610.15625 371.25 C 612.06245 371.25 616.43525 372.0797 618.09375 371.25 C 620.29405 370.1491 622.3125 370.18475 622.3125 367.53125 C 622.3125 364.76745 625.17645 363.6435 625.09375 363.3125 C 624.77675 362.0438 622.78135 358.77945 622.78125 357.71875 C 622.78125 355.99565 622.00985 351.7939 622.78125 350.25 C 623.35075 349.1105 625.63945 345.26745 627.90625 346.96875 C 628.34605 347.29865 633.4626 351.225 633.5 351.1875 C 635.6228 349.0633 634.4375 346.3813 634.4375 342.3125 C 634.4375 339.5491 633.9584 337.24085 634.4375 334.84375 C 634.9929 332.06505 635.2759 331.29315 636.3125 329.21875 C 636.8211 328.20085 636.931 323.16495 637.6875 322.21875 C 638.3098 321.44045 638.9402 320.68455 639.5625 319.90625 C 638.297 317.37375 637.38605 318.2243 640.03125 317.5625 C 643.08215 316.7993 642.7401 314.8237 644.6875 312.875 C 648.005 309.5554 641.90625 311.6624 641.90625 308.6875 C 641.90625 307.5779 642.60365 302.3855 641.90625 301.6875 C 638.55125 298.3303 640.03135 300.2558 640.03125 297.9375 C 640.03125 293.8536 637.27445 295.7238 636.78125 293.75 C 636.48435 292.5618 635.84365 289.2937 635.84375 287.6875 C 635.84375 283.5662 636.26205 283.9429 640.03125 283 C 642.21205 282.4545 643.4149 281.25785 644.6875 282.53125 C 646.243 284.08785 647.8194 288.77525 649.375 287.21875 C 650.2497 286.34335 650.53335 285.126 652.15625 286.75 C 653.65845 288.2532 655.84215 289.40205 656.84375 291.40625 C 658.07155 293.86355 659.4717 292.6169 662.4375 291.875 C 664.6687 291.3168 665.2262 289.53135 667.5625 289.53125 C 670.4951 289.53125 672.6875 289.8989 672.6875 286.75 C 672.6875 284.2643 671.78135 281.77205 671.78125 279.71875 C 671.78125 275.51375 668.7752 277.1014 668.5 276 C 667.7225 272.8879 668.74245 272.66285 665.21875 271.78125 C 662.91255 271.20445 662.10075 270.3492 662.90625 267.125 C 663.86465 263.2896 662.81615 263.7864 660.09375 261.0625 C 659.13625 260.1044 652.26295 259.86965 652.15625 259.65625 C 651.29565 257.93415 652.50225 253.2014 650.78125 254.0625 C 648.88745 255.0101 646.4853 256.2312 643.3125 255.4375 C 642.4502 255.2218 636.3125 253.9511 636.3125 252.1875 C 635.1547 252.1875 629.06195 251.0322 629.78125 250.3125 C 630.69525 249.3979 631.9748 245.699 628.375 247.5 C 626.6766 248.3497 625.5388 248.88385 623.6875 247.03125 C 622.4047 245.74775 619.03135 246.0653 619.03125 244.25 C 619.03135 240.4628 618.99115 241.41825 616.21875 240.03125 C 613.81205 238.82715 613.3151 238.3268 610.625 237.25 C 606.8064 235.7216 606.1167 237.09545 603.625 237.71875 C 601.8471 238.16355 598.65955 238.1875 596.15625 238.1875 L 585.4375 238.1875 C 582.0274 238.1875 578.5694 238.0895 575.625 239.5625 C 573.3283 240.7116 570.95595 240.96875 568.15625 240.96875 C 567.40125 240.96875 561.38105 240.51895 561.15625 240.96875 C 559.49795 244.28765 560.46085 242.375 556.96875 242.375 C 553.67335 242.375 553.07485 245.65635 550.90625 245.65625 C 548.09985 245.65625 545.83685 246.78295 544.84375 247.03125 C 542.40625 247.64105 540.625 246.8915 540.625 244.25 C 540.625 241.2285 540.71105 239.5484 536.90625 240.5 C 533.80775 241.2751 534.8763 244.17115 532.6875 244.71875 C 530.2956 245.31705 526.7087 245.635 524.75 246.125 C 523.3378 246.4783 520.40195 247.31815 519.15625 245.65625 C 517.64235 243.63655 516.29755 244.4463 514.03125 243.3125 C 512.13875 242.3656 509.4989 239.5625 506.5625 239.5625 C 502.6128 239.5625 498.2074 239.5725 494.4375 238.625 C 493.30613 238.34194 490.94799 234.98826 489.4375 235.09375 z M 66.28125 238.4375 C 66.328178 238.82252 66.350018 239.22994 66.375 239.625 C 66.349791 239.22717 66.328613 238.82513 66.28125 238.4375 z M 23.59375 277.6875 C 21.942738 278.00993 20.024677 277.99748 20.28125 279.28125 C 20.501395 280.38265 20.820161 281.21714 21.3125 282.25 C 21.082214 281.75691 20.91202 281.3186 20.75 280.875 C 21.68121 279.7961 22.64902 278.7543 23.59375 277.6875 z M 641.96875 475.1875 C 641.3868 475.15246 640.74025 475.34293 640.03125 475.875 C 637.73785 477.5962 637.21865 478.5744 637.21875 481.9375 C 637.21875 484.1223 639.8058 488.99865 637.6875 488.46875 C 636.2892 488.11885 634.60935 488.22105 633.96875 485.65625 C 633.78915 484.93795 633.7637 479.89415 632.5625 479.59375 C 631.0172 479.20705 628.07025 475.875 627.90625 475.875 C 624.70375 475.875 624.22385 476.64475 623.21875 478.65625 C 622.27245 480.55005 618.09365 480.28915 618.09375 482.40625 C 618.09365 486.01295 616.7068 484.73355 615.3125 486.59375 C 615.0394 486.95815 612.5542 491.33545 612.5 491.28125 C 610.6671 489.44715 610.0664 489.81525 607.375 488.46875 C 607.11465 488.33846 606.72875 488.13808 606.3125 487.90625 C 606.423 491.42625 606.5 494.9534 606.5 498.5 C 606.5 563.9264 587.607 624.96365 555 676.46875 C 555.78664 677.24883 556.51257 678.08703 556.96875 679 C 557.62525 680.3141 558.0502 682.39315 559.3125 683.65625 C 561.0526 685.39755 562.5625 687.9731 562.5625 690.6875 C 563.4434 691.8627 564.90625 692.44685 564.90625 694.40625 C 564.90625 697.58365 565.0684 698.91635 566.3125 701.40625 C 567.2552 703.29285 567.94045 705.66085 569.09375 707.96875 C 570.17305 710.12885 570.03135 712.34585 570.03125 714.96875 C 570.03125 718.12325 569.77985 719.84085 571.90625 721.96875 C 572.78155 722.84455 575.35465 728.17695 576.09375 725.21875 C 577.08655 721.24455 577.03125 722.44975 577.03125 725.21875 C 577.03135 727.80335 577.52035 729.5181 577.96875 731.3125 C 578.42805 733.1513 578.69515 734.99065 579.84375 736.90625 C 580.32345 737.70625 584.5 739.96255 584.5 740.65625 C 584.5 743.03395 584.03135 744.5009 584.03125 747.1875 C 584.03125 749.8549 583.97415 751.72895 584.96875 753.71875 C 586.69755 757.17845 587.9731 759.11855 584.5 762.59375 C 585.5971 763.69145 586.05335 764.26195 586.84375 765.84375 C 587.65055 767.45835 589.0387 770.842 590.5625 772.875 C 592.0987 774.9246 593.375 776.44425 593.375 779.40625 L 593.375 788.75 C 593.375 791.8072 591.67445 793.1752 591.03125 795.75 C 590.60385 797.4608 589.93505 800.2542 589.15625 801.8125 C 588.21355 803.6992 588.3627 805.30445 587.3125 807.40625 C 586.4599 809.11265 584.96865 812.94635 584.96875 814.90625 C 584.96875 815.97185 586.6477 822.23725 587.75 820.03125 C 589.1258 817.27795 591.1392 817.93845 589.625 820.96875 C 588.6655 822.88895 588.10645 824.0354 586.84375 826.5625 C 585.93945 828.3725 588.65245 833.53 586.84375 832.625 C 585.96375 832.1848 583.33575 832.8664 584.03125 833.5625 C 585.31415 834.8461 590.3101 835.5631 588.6875 836.375 C 588.22 836.6088 583.87765 836.99675 583.09375 837.78125 C 581.07345 839.80295 580.9624 838.93075 581.6875 839.65625 C 582.4876 840.45695 585.15865 842.34725 585.90625 843.84375 C 586.76245 845.55725 587.74935 846.6228 589.15625 848.5 C 589.18825 848.542 594.75 852.76975 594.75 850.84375 C 594.75 847.62505 593.24925 847.09165 592.90625 845.71875 C 592.89025 845.65375 592.86075 845.59355 592.84375 845.53125 C 592.39285 845.19265 591.9724 844.7852 591.5 844.3125 C 589.8564 842.6679 592.03065 842.64925 592.84375 845.53125 C 593.81695 846.26235 594.93475 846.6196 597.09375 846.1875 C 600.75345 845.4551 600.2721 844.92625 601.75 841.96875 C 602.9488 839.56985 604.09365 837.9803 604.09375 834.5 C 604.09375 831.6948 604.76715 827.85225 604.09375 825.15625 C 603.44985 822.57925 602.1568 821.1909 601.75 819.5625 C 601.6049 818.9817 601.4611 818.17665 601.25 817.34375 C 600.808 816.82175 600.4479 816.37855 600.375 816.28125 C 599.5339 815.15925 599.24615 814.1016 599.03125 812.9375 C 598.21645 811.5149 598.2369 809.16615 598.5 810.21875 C 598.7529 811.23115 598.87785 812.106 599.03125 812.9375 C 599.14775 813.1407 599.2853 813.3477 599.4375 813.5 C 600.3895 814.4526 600.8974 815.95225 601.25 817.34375 C 602.3317 818.62085 604.0657 820.52845 604.5625 820.03125 C 607.4857 817.10635 604.83665 821.0471 605.96875 823.3125 C 606.25025 823.876 609.0539 827.22675 608.3125 827.96875 C 606.6553 829.62695 606.4375 830.9239 606.4375 834.5 C 606.4375 836.6114 606.9462 839.4637 606.4375 841.5 C 605.625 844.7521 605.19415 845.0858 603.15625 847.125 C 602.57515 847.7065 599.53695 849.8342 599.90625 851.3125 C 600.34575 853.0711 600.8522 855.10975 601.75 856.90625 C 603.3918 860.19195 604.7993 859.4851 607.375 862.0625 C 607.7831 863.0833 608.9731 866.94155 609.6875 867.65625 C 611.5826 869.55255 612.1899 870.7532 613.4375 873.25 C 614.434 875.2443 614.375 877.8958 614.375 880.75 L 614.375 888.6875 C 614.375 890.9063 613.8369 894.00255 614.375 896.15625 C 614.8334 897.99125 616.8725 901.46515 618.5625 903.15625 C 620.5382 905.13325 622.83755 907.4299 625.09375 909.6875 C 627.19855 911.7937 627.67655 913.67475 630.21875 916.21875 C 631.98035 917.98135 633.4081 919.315 634.4375 921.375 C 635.479 923.4593 636.16935 924.9879 636.78125 927.4375 C 637.49835 930.3072 638.8095 931.4239 639.5625 934.4375 C 640.2288 937.1048 640.98775 937.0862 642.84375 939.5625 C 644.44935 941.7048 644.81245 944.02945 646.09375 946.59375 C 647.09375 948.59495 647.8818 950.6934 649.375 952.1875 C 650.8869 953.7005 652.217 956.4949 653.5625 959.1875 C 654.6662 961.3963 656.64055 962.9668 657.78125 965.25 C 658.92625 967.5413 660.5416 969.44675 662.4375 971.34375 C 663.7809 972.68805 664.73155 974.51855 665.21875 976.46875 C 665.39465 977.17295 666.061 978.20305 666.625 979.28125 C 666.0501 976.98015 666.3119 975.21795 665.6875 972.71875 C 665.0892 970.32405 664.33565 968.62535 663.84375 966.65625 C 663.31975 964.55925 662.0864 964.3469 661.5 962 C 660.9196 959.677 661.1053 957.8563 659.625 956.375 C 657.9654 954.7143 658.94885 953.70355 658.21875 950.78125 C 657.72545 948.80725 657.95365 945.534 656.84375 943.3125 C 656.50665 942.4694 654.8264 940.68425 654.5 940.03125 C 653.58 938.19025 651.21865 937.1285 651.21875 935.375 C 651.21875 934.2654 651.91605 929.0729 651.21875 928.375 C 648.91525 926.07 648.90625 923.8681 648.90625 920.4375 C 648.90635 917.6356 648.90625 914.83315 648.90625 912.03125 C 648.90625 908.72605 646.10025 909.1954 643.78125 906.875 C 643.15905 906.2524 642.52845 905.65385 641.90625 905.03125 C 640.18455 903.30845 641.0268 898.86925 638.625 898.46875 C 636.2246 898.06845 632.7775 898.2866 635.375 895.6875 C 636.83 894.2316 637.19115 892.8893 639.09375 891.9375 C 641.31695 890.8251 641.90625 890.42795 641.90625 887.28125 C 641.90635 884.04375 640.1545 882.30595 639.5625 879.34375 C 639.2487 877.77415 638.27945 873.5043 639.09375 871.875 C 639.93785 870.1855 640.8814 868.4038 643.3125 867.1875 C 644.7664 866.4601 647.5 865.69765 647.5 863.46875 C 647.5 861.87845 646.8252 857.375 648.4375 857.375 C 651.0185 857.375 653.7297 858.50545 656.375 857.84375 C 658.7649 857.24585 660.09375 856.0516 660.09375 853.1875 C 660.09375 850.5092 659.57425 848.0625 662.90625 848.0625 C 666.56815 848.0625 669.6836 848.52145 671.3125 851.78125 C 672.1508 853.45895 672.6875 854.4846 672.6875 857.375 C 672.6875 858.3334 672.15415 863.6868 673.15625 863.9375 C 674.43375 864.2571 678.2492 863.9775 679.25 865.3125 C 679.5288 865.6845 682.8661 869.704 684.375 867.1875 C 684.8417 866.4092 685.31465 865.62205 685.78125 864.84375 C 686.71465 864.84365 687.6292 862.53125 688.5625 862.53125 C 690.4095 862.53125 694.15625 863.47525 694.15625 865.78125 C 694.15625 867.99615 693.8388 870.77025 694.625 872.34375 C 695.71 874.51515 697.90625 878.50485 697.90625 881.65625 C 697.90635 884.97675 700.6077 887.07665 702.5625 884.46875 C 703.3261 883.44995 705.25035 879.8125 706.78125 879.8125 C 709.34315 879.8125 712.10955 880.40735 712.84375 877.46875 C 713.70405 874.02535 710.51165 873.07845 709.09375 869.53125 C 707.94485 866.65715 706.56155 861.43515 705.84375 857.84375 C 705.24155 854.83085 704.90635 851.333 704.90625 848.0625 C 704.90625 843.562 703.13905 839.6216 702.09375 835.4375 C 701.93815 834.8149 701.7806 834.1851 701.625 833.5625 C 700.8461 830.445 699.3124 827.48305 699.3125 824.21875 C 699.3125 820.30225 698.375 816.6595 698.375 812.5625 C 698.375 808.8352 699.3124 805.38605 699.3125 802.28125 C 699.3125 798.59085 698.7981 794.43685 700.25 791.53125 C 701.3775 789.27485 701.48815 786.01715 702.09375 783.59375 C 702.70675 781.14025 703.20425 776.4728 702.09375 774.25 C 700.58435 771.2292 699.64035 769.03205 698.84375 765.84375 C 698.30525 763.68815 697.9757 761.4672 697.4375 759.3125 C 696.9149 757.221 697.92905 752.82815 696.96875 750.90625 C 695.88055 748.72865 692.78135 745.9813 692.78125 744.375 C 692.78135 742.6516 692.12245 736.82625 694.15625 737.84375 C 695.34445 738.43825 699.3124 743.383 699.3125 739.25 C 699.3125 736.276 698.58415 735.43195 697.90625 732.71875 C 697.49245 731.06205 696.94305 727.98095 696.03125 726.15625 C 695.36745 724.82755 694.48275 722.38095 694.15625 720.09375 C 693.77045 717.39105 694.3507 713.87305 693.6875 711.21875 C 693.234 709.40325 692.22515 707.4703 692.78125 704.6875 C 692.93685 703.9092 693.0946 703.12195 693.25 702.34375 C 691.1858 700.79455 690.45455 699.19885 689.96875 696.28125 C 689.49615 693.44485 689.5574 690.83235 688.5625 688.34375 C 687.0859 684.64985 687.2774 684.89255 688.5625 682.28125 C 689.8781 679.60835 685.78125 677.6899 685.78125 675.25 C 685.78125 672.392 685.9566 669.42195 685.3125 666.84375 C 684.5765 663.89795 684.84375 660.64295 684.84375 657.53125 C 684.84365 655.53525 685.5295 651.6028 684.375 650.0625 C 682.6802 647.8013 684.1442 642.8328 682.5 641.1875 C 680.4512 639.1374 677.1785 635.2783 676.4375 632.3125 C 675.7785 629.675 673.625 626.6753 673.625 624.375 C 673.625 622.7381 674.76345 617.1078 674.09375 616.4375 C 672.91875 615.2618 669.42545 615.4532 668.96875 613.625 C 668.17745 610.4584 666.9372 611.1265 664.3125 608.5 C 661.6472 605.833 660.24675 603.55 661.03125 599.625 C 661.66145 596.4724 661.96875 592.7747 661.96875 588.875 C 661.96875 585.9522 661.6196 584.45905 660.5625 582.34375 C 659.5401 580.29745 658.6875 577.77895 658.6875 575.34375 C 658.6875 572.56695 658.84945 570.4499 657.78125 568.3125 C 656.94505 566.6387 656.84365 564.66305 656.84375 561.78125 C 656.84375 557.80445 662.90625 560.08755 662.90625 559.46875 L 662.90625 552.4375 C 662.90625 548.2158 662.28865 547.6338 660.09375 545.4375 C 658.25065 543.5932 658.9166 543.1478 659.625 540.3125 C 660.0615 538.5649 660.2093 536.67905 658.6875 535.15625 C 657.7522 534.22045 655.7291 532.42745 655.4375 530.96875 C 654.8851 528.20475 654.6283 526.5704 653.5625 524.4375 C 652.489 522.2892 651.21865 519.5138 651.21875 516.5 C 651.21875 514.1794 651.25085 511.38195 650.78125 509.03125 C 650.41385 507.19335 651.9881 504.24455 650.3125 503.40625 C 648.1015 502.30015 647.5 500.43195 647.5 497.34375 C 647.5 494.03625 646.1582 494.35275 645.625 492.21875 C 645.1865 490.46355 645.15625 488.04245 645.15625 485.65625 C 645.15625 483.54495 645.66505 480.69265 645.15625 478.65625 C 644.85423 477.44732 643.71459 475.29263 641.96875 475.1875 z M 604.9375 487.0625 C 605.37211 487.35145 605.81415 487.61418 606.21875 487.84375 C 605.821 487.61941 605.36351 487.34524 604.9375 487.0625 z M 584.3125 775 C 583.0389 775.1201 582.61675 776.1569 582.15625 778 C 581.64755 780.0364 582.15625 782.8886 582.15625 785 C 582.15635 787.9441 582.5808 789.0979 583.5625 791.0625 C 584.3339 792.6065 583.5625 796.8395 583.5625 798.5625 C 583.5625 801.4678 582.625 801.876 582.625 804.625 C 582.625 805.4187 582.31195 806.1592 582.15625 806.9375 C 582.56935 806.9375 583.1305 801.6665 583.5625 799.9375 C 583.9022 798.5779 585.49865 796.4443 585.90625 794.8125 C 586.54815 792.2434 587.75 790.7564 587.75 787.8125 C 587.75 785.3207 588.21865 783.3647 588.21875 780.8125 C 588.21875 777.6059 589.09585 775.9854 585.90625 775.1875 C 585.25295 775.0241 584.737 774.96 584.3125 775 z M 666.65625 979.40625 C 666.89615 980.32385 667.2522 981.12935 667.5625 981.96875 C 667.5325 981.20905 667.12115 980.30595 666.65625 979.40625 z M 667.5625 982.0625 C 667.5625 984.5738 668.0372 986.74115 668.5 988.59375 C 668.52 988.67275 668.5435 988.70495 668.5625 988.78125 C 668.5235 988.13935 668.5 987.4668 668.5 986.75 C 668.5 984.7811 668.0495 983.3872 667.5625 982.0625 z M 659.625 985.34375 C 657.3242 985.34365 653.92455 985.67275 656.84375 988.59375 C 659.01085 990.76235 658.0745 991.76525 658.6875 994.21875 C 658.7565 994.04635 660.4817 985.34365 659.625 985.34375 z M 668.5625 988.875 C 668.6842 990.7599 668.9824 992.39735 669.4375 994.21875 C 669.7992 995.66655 669.8515 995.9523 670.375 997 C 670.2195 996.2218 670.06175 995.4658 669.90625 994.6875 C 669.36885 991.9987 669.0997 991.0176 668.5625 988.875 z " id="Green Background"/>
  <path d="m 273.14705,165.1875 c -54.56042,0 -106.08786,13.1039 -151.56245,36.375 -0.38492,1.6182 -0.43708,3.2499 0.4375,3.9063 1.59743,1.1987 3.74975,3.342 4.65625,5.1562 1.71628,3.4347 3.52185,0.7393 5.59375,2.8125 1.61656,1.6176 3.07752,4.5694 5.125,5.5937 1.59506,0.7981 4.6904,0.017 6.53125,0.9376 1.4102,0.7056 3.60799,1.1506 5.15625,2.3124 1.40486,1.0543 4.26574,3.75 0,3.75 -3.06477,0 -5.62503,0.6585 -5.625,4.1876 0,2.5249 1.01483,5.1562 -1.84375,5.1562 -6.66869,0 -0.59759,0.013 -1.40625,3.25 -0.77065,3.0845 -3.2384,2.8195 -7,0.9375 -0.64208,-0.3212 -4.75942,-3.4075 -5.59375,-2.7813 -0.94071,0.7059 -4.37331,3.7958 -5.15625,4.1876 -2.35974,1.1805 -2.08919,-0.33 -5.125,-0.9376 -3.87415,-0.7752 -4.27247,-1.8854 -7,-3.25 -2.35575,-1.1787 -5.08892,-0.9374 -7.9375,-0.9374 -2.33341,0 -4.66659,0 -7,0 -3.42032,0 -3.48325,1.2562 -6.53125,2.7812 -2.57822,1.2899 -2.29243,0.1538 -4.65625,-0.4375 -2.12376,-0.5313 -4.50754,-1.8374 -6.53125,-2.3437 -1.82793,-0.4574 -4.15122,0 -6.0625,0 -0.68495,0 -1.58141,-0.3981 -2.5,-0.875 -1.009,0.7824 -2.00027,1.5812 -3,2.375 0.40074,2.0114 0.34375,4.2213 0.34375,6.4374 0,2.7063 -0.46875,3.9777 -0.46875,6.5313 0,2.3536 1.1382,4.3206 0.46875,7 -0.75151,3.008 1.08597,3.4432 0.46875,6.5313 -0.47698,2.3865 -2.49532,3.6063 -4.65625,4.6874 -1.76959,0.8855 -3.71873,3.3204 -3.71875,5.5938 0,2.0283 0.0822,2.7989 0.0937,2.9688 -0.0608,-0.126 -0.38758,-1.0938 -1.5,-1.0938 -4.27317,0 -4.10617,1.2919 -7,4.1875 -1.62716,1.6282 -1.40626,3.2057 -1.40625,6.0937 0,2.7602 -0.73319,5.3822 -2.8125,2.7813 -1.26331,-1.5801 -5.10328,-0.3493 -5.59375,-2.3125 -0.31573,-1.2637 -0.52883,-4.7469 -1.40625,-5.625 -1.40765,-1.4086 -2.24871,-5.5937 -4.65625,-5.5938 -2.80169,10e-5 -6.97243,-0.4975 -8.875,1.4063 -0.40711,0.4073 -1.084,0.6102 -1.8125,0.75 -0.94473,1.0668 -1.91254,2.1086 -2.84375,3.1875 0.32404,0.8872 0.76008,1.7694 1.40625,3.0625 1.09469,2.1908 1.84375,3.672 1.84375,6.0625 0,4.9265 -4.69309,1.0837 -5.125,2.8125 -0.39221,1.5698 -1.16903,3.2198 -1.09375,5.1875 1.1455,0.8117 1.0559,4.9447 0.15625,1.3438 -0.11713,-0.4689 -0.13962,-0.909 -0.15625,-1.3438 -0.21213,-0.1503 -0.48272,-0.2119 -0.78125,-0.062 -1.80878,0.905 -0.35061,5.1342 -2.3125,5.625 -2.0881,0.5223 -5.478,-0.027 -6.0625,2.3125 -0.60248,2.4115 -1.70097,3.0522 -2.34375,5.625 -0.60031,2.4028 -2.16253,3.1637 -3.28125,4.6562 -0.33545,0.4476 -3.85974,6.9291 -2.78125,7.4688 0.58462,0.585 0.27109,0.8384 1.40625,1.4062 1.84431,0.9228 3.91006,3.6311 5.125,6.0626 0.83581,1.6726 2.08059,3.7268 2.78125,6.5312 0.58212,2.33 1.57749,3.9201 3.28125,5.625 1.24754,1.2483 3.50559,3.8461 5.125,4.6562 1.7984,0.8998 4.21373,2.8377 6.0625,4.6876 1.69988,1.701 3.22458,2.7233 5.15625,4.6562 1.97243,1.9737 4.21351,0.9624 6.0625,2.8125 1.29191,1.2927 3.19684,2.2049 4.1875,4.1875 1.36066,2.7231 1.79019,3.3337 4.21875,5.1562 2.1251,1.5949 3.30815,1.8438 7,1.8438 2.82032,0 4.93618,-0.9375 7.46875,-0.9375 1.60936,0 5.80542,-0.7265 7,0.4687 1.32124,1.3222 2.73467,3.9604 5.125,5.1563 2.24783,1.1246 5.87606,0.532 7,2.7813 0.15556,0.3113 0.31318,0.6261 0.46875,0.9374 0.90707,1.8154 2.75805,7.1252 3.25,5.1563 0.26679,-1.0678 -0.51512,-2.789 0.46875,-3.2813 2.79182,-1.3967 1.91475,0.019 4.6875,1.4063 1.92797,0.9646 3.73717,0.4688 6.53125,0.4687 2.63379,10e-5 4.73944,-0.4688 7.46875,-0.4687 2.85577,0 5.81052,0.4321 7,2.8125 0.57393,1.1486 1.43212,3.5878 0.9375,6.0625 -0.4714,2.3584 -0.34373,4.6233 -0.9375,7 -0.68923,2.7587 -3.75,4.4577 -3.75,7 0,2.4906 0,4.9782 0,7.4687 0,3.8884 -0.35196,4.0726 0.9375,3.75 1.1843,-0.2961 2.57881,-0.9365 3.28125,1.875 0.3604,1.4426 0.98636,4.4595 0.46875,6.5313 -0.46217,1.8499 -1.91278,4.9727 -1.40625,7 0.38476,1.5401 5.041,-0.6025 4.65625,0.9375 -0.65467,2.6204 -2.69067,2.4176 -3.25,4.6562 -0.68017,2.7224 2.33565,8.4063 -0.46875,8.4063 -0.32825,0.3285 -2.24218,4.2188 -3.28125,4.2187 -0.31113,0 -0.65922,-0.1391 -0.9375,0 -1.89821,0.9498 -4.47343,1.7516 -6.53125,2.7813 -2.4998,1.2507 -3.6493,1.4062 -7,1.4063 -4.48286,0 -4.18752,-2.5726 -4.1875,0.9374 0,2.1115 0.50874,4.9636 0,7 -0.33553,1.3429 -0.18524,4.872 -1.40625,6.0938 -1.37483,1.3757 -1.875,3.1398 -1.875,5.5938 0,2.5182 0.46875,5.6456 0.46875,7.4687 0,2.662 0.10782,4.6922 -0.46875,7 -0.39391,1.5766 2.13258,3.2339 1.40625,4.6875 -0.2253,0.4508 -2.83354,6.1854 -0.46875,5.5938 1.61303,-0.4036 4.2376,-0.4688 6.53125,-0.4688 2.79158,0 4.04226,0.8237 4.65625,3.2812 0.43624,1.7462 1.51022,3.3531 2.8125,4.6563 1.22837,1.2291 2.48014,2.5842 3.28125,4.1875 1.19663,2.3947 3.036,3.0662 4.65625,4.6875 0.67177,0.6722 3.19774,4.1875 4.1875,4.1875 1.53997,0 1.78727,-3.6236 3.28125,-3.25 2.99083,0.7482 2.78125,0.5528 2.78125,4.1875 0,6.8188 -3.46756,3.6821 -3.71875,4.6875 -0.22843,0.2286 -0.77805,0.2992 -0.9375,0.9375 -0.40326,1.6141 -0.46877,4.2361 -0.46875,6.5313 0,1.0886 0.29391,7.2778 -0.46875,7.4687 -4.90035,1.2258 -2.3125,-0.3844 -2.3125,4.1875 0,1.9786 0.52549,6.3576 -2.8125,4.6875 -3.78305,-1.8928 -4.12042,-2.6181 -2.34375,0.9375 1.14749,2.2964 0.89031,3.6703 2.8125,5.5938 1.43223,1.4331 5.59374,2.3596 5.59375,3.75 0,5.6417 2.47163,0.9069 5.59375,3.25 3.07602,2.3086 1.54697,0.3765 2.34375,-2.8126 0.88453,-3.5404 0.73449,0.4689 4.1875,0.4688 2.2544,0 5.43833,-0.547 7.46875,0.4688 2.24131,1.1213 4.11731,4.4206 7.46875,3.75 1.11577,-0.2235 6.95719,-1.2361 6.53125,0.4687 -0.85105,3.4065 -0.58109,1.9147 -3.25,3.25 -2.32388,1.1627 -3.60234,1.5783 -4.6875,3.75 -0.88569,1.7725 -1.39982,4.2115 -2.78125,5.5937 -0.74716,0.7476 -5.31475,2.1645 -5.59375,3.2813 -0.60082,2.4048 -0.46876,5.2501 -0.46875,7.9375 0,2.1114 0.50874,4.9637 0,7 -0.55172,2.2083 -1.30563,3.7836 -1.875,6.0625 -0.2396,0.959 -1.3902,6.5589 0.46875,6.0937 1.87093,-0.468 3.97785,-0.8714 4.65625,1.8438 0.33964,1.3594 1.23151,5.9183 2.34375,7.0312 0.92496,0.9255 4.09377,1.1868 4.65625,2.3126 0.70029,1.4013 0.93747,3.4442 0.9375,6.0937 0,2.9197 0.62131,4.9693 -1.875,5.5937 -1.02325,0.256 -5.52236,3.7887 -3.25,6.0626 -0.32929,0.659 -1.88657,3.7377 -0.9375,4.6874 0.6914,0.6919 6.06247,6.2529 6.0625,7 0,3.8944 -0.0335,4.6884 -2.34375,7 -3.95385,3.9565 4.83106,5.9176 2.8125,7.9376 -2.35688,2.3583 -3.34028,5.0641 -0.46875,7.9374 1.90406,1.9054 0.64546,3.4863 1.40625,6.5313 0.49094,1.965 0.64278,4.3607 1.875,5.5937 1.50341,1.5045 2.14154,3.0647 2.78125,5.625 0.94599,3.7864 -2.78123,4.353 -2.78125,6.0626 0.23095,0.231 1.84373,1.031 1.84375,1.875 0,2.4931 -0.46878,4.4436 -0.46875,7 0,3.7692 -0.12356,4.0625 1.875,6.0624 1.25046,1.2513 3.96041,4.6875 3.28125,4.6876 -6.6677,-10e-5 0.65842,3.0592 -0.9375,4.6562 -3.92801,3.9305 1.30351,1.8024 3.25,3.75 1.60163,1.6027 1.97413,3.348 3.75,5.125 1.56354,1.5645 1.40628,3.1204 1.40625,6.0625 0,2.8456 3.27019,4.1379 3.25,4.2187 -0.88827,3.5553 -3.44282,2.6967 -4.65625,5.125 -0.40109,0.8026 -1.92582,4.0847 -0.9375,6.0626 0.89753,1.7961 2.8669,4.389 3.71875,6.0937 0.76288,1.5267 0.93751,3.3699 0.9375,6.0625 0,1.8327 0.59308,5.1146 -0.46875,6.5312 -1.53785,2.0519 -2.96791,3.9043 -4.65625,5.5938 -2.05702,2.0583 -4.53748,2.6394 -3.71875,4.6875 1.08876,2.7236 1.9674,2.8051 2.78125,6.0625 0.38077,1.524 0.46873,4.3005 0.46875,6.5312 0,3.0003 -3.54037,4.3225 0,6.0938 2.47925,1.2405 2.82583,2.8244 5.125,5.125 1.53196,1.5329 3.66387,4.5688 5.625,6.5312 1.9301,1.9313 4.65622,2.5058 4.65625,-0.9374 0,-3.4316 -0.92085,-4.8513 -3.71875,-6.5313 -1.9186,-1.1519 -4.21877,-2.4215 -4.21875,-4.6563 0,-0.6971 0.25685,-2.9505 0.3125,-4.8124 -0.25154,-0.5909 -0.30519,-1.5365 -0.25,-2.5626 -0.0196,-0.032 -0.0401,-0.071 -0.0625,-0.094 -2.06611,-2.0674 -4.18747,-4.117 -4.1875,-7.5 0,-2.1114 -0.50872,-4.9635 0,-7 0.28713,-1.1492 3.25003,-4.6839 3.25,-3.25 0,2.2757 -0.48917,5.5517 0.46875,7.4687 0.76288,1.5267 0.93748,3.3699 0.9375,6.0626 0,0.8482 -0.31836,2.6786 -0.40625,4.3124 0.23619,0.3801 0.28527,1.3826 0.25,2.5626 0.13832,0.3248 0.33221,0.5351 0.625,0.5937 1.38609,0.2774 8.05274,5.7846 8.875,4.6875 1.36202,-1.8172 1.91207,-3.4168 2.78125,-5.1562 0.92203,-1.8453 2.34376,-4.29 2.34375,-6.5313 0,-1.7859 1.12489,-6.1316 1.4375,-7.2187 -0.0172,0.074 0.002,0.085 -0.0312,0.2187 -0.73449,2.9398 -0.2062,5.9479 -0.9375,8.875 -0.36128,1.446 -1.34839,6.1195 0,7.4687 1.74605,1.7472 2.34374,3.5974 2.34375,6.5313 0,2.3349 -1e-5,4.6651 0,7 0,2.8627 -0.93752,4.4498 -0.9375,7 0,0.6881 0.003,1.3657 0.0625,2 3.02244,0.9085 6.06718,1.7382 9.125,2.5625 0.21051,-0.1026 0.39251,-0.2229 0.59375,-0.3438 3.43869,-2.0645 4.19398,-1.4289 0.9375,-4.6874 -2.00308,-2.0043 -0.78141,-2.3898 1.875,-3.7188 2.99123,-1.4966 2.90745,-3.0576 0.9375,-7 -1.45727,-2.9164 -2.62694,-6.2561 -3.28125,-8.875 -0.47993,-1.921 -1.00916,-5.3058 -0.46875,-7.4688 0.81326,-3.255 0.46224,-4.716 1.40625,-0.9374 0.75036,3.0034 0.95344,3.2644 3.28125,5.5937 1.06373,1.0644 4.1875,2.7233 4.1875,4.6875 0,3.8792 -0.38307,3.8782 0.46875,0.4688 0.62556,-2.5039 1.74575,-3.7004 2.34375,-6.0938 0.55542,-2.2231 0.93749,-3.6757 0.9375,-6.5312 0,-1.9807 0.84754,-6.2414 0,-7.9376 -1.29517,-2.5919 -2.16637,-4.7688 -3.28125,-7 -0.82868,-1.6585 -2.23311,-3.2009 -3.71875,-4.6874 -1.27467,-1.2756 -2.81252,-3.8143 -2.8125,-6.5313 0,-4.6126 0.1943,-5.2392 2.34375,-0.9375 0.73027,1.4615 2.34763,4.2531 3.71875,5.625 0.77143,0.772 3.74999,6.2567 3.75,2.3125 0,-0.9185 1.05316,-6.7066 1.375,-6.0625 0.90565,1.8125 1.40622,3.1302 1.40625,6.0625 0,2.3349 -3e-5,4.6963 0,7.0313 0,2.3348 -3e-5,4.6651 0,7 0,2.7367 -0.8406,4.2673 -1.40625,6.5312 -0.64121,2.5665 -1.84376,5.6156 -1.84375,8.4062 0,2.4907 -1e-5,4.9783 0,7.4688 0,1.1281 2.73461,8.4541 4.65625,6.5312 1.15361,-1.1543 3.76757,-2.5705 6.0625,-3.7187 2.14279,-1.0721 4.01345,-1.2308 6.0625,-3.2813 0.77744,-0.7779 4.69653,-4.4863 2.8125,-7 -1.24438,-1.6602 -1.875,-2.6021 -1.875,-5.5937 0,-2.2206 -0.50771,-5.5458 0.46875,-7.5 1.29644,-2.5945 3.42316,-1.5471 5.125,-3.25 1.04195,-1.0427 2.65368,-5.9098 1.40625,-8.4063 -1.4568,-2.9154 -2.58423,-4.2607 -3.71875,-6.5312 -0.1458,-0.2918 -3.32405,-6.4565 0,-5.625 4.00263,1.0013 3.71874,0.055 3.71875,-3.7188 0,-1.0419 0.83404,-6.7383 0.9375,-6.5312 1.53656,3.075 -0.46876,4.307 -0.46875,7.4688 0,2.6588 0.44827,4.1042 0.9375,6.0624 0.82993,3.3218 0.83482,1.9739 4.1875,2.8126 1.79485,0.4489 1.92419,2.6809 0.46875,5.5937 -0.56205,1.1248 -1.40626,3.6533 -1.40625,5.5937 0,2.4907 -1e-5,4.9782 0,7.4688 0,2.3349 -1e-5,4.6963 0,7.0312 0,2.335 -1e-5,4.6652 0,7 0,2.1115 -0.50876,4.9637 0,7 0.64262,2.5722 1.40521,5.2414 4.6875,6.0626 3.51903,0.8803 4.48213,1.1806 3.71875,-1.875 -0.5392,-2.1582 -0.46877,-4.5745 -0.46875,-7 0,-2.3918 0.60794,-5.9223 -0.9375,-7.4688 -1.40866,-1.4096 -5.65144,-5.1397 -3.71875,-4.6562 0.0127,0 3.08646,0.109 4.1875,2.3124 0.86706,1.7354 4.2306,3.7964 4.6875,5.625 0.34971,1.3997 -2.79712,4.6704 -0.9375,6.5313 1.79759,1.7987 3.66653,1.4063 6.5312,1.4063 1.7579,-1e-4 6.0644,0.4626 6.5313,-1.4063 0.2649,-1.0603 1.094,-4.9678 0,-6.0625 -1.2823,-1.283 -4.6849,-2.84 -6.5313,-4.6875 -2.0222,-2.0235 -5.83919,-9.2173 -3.2812,-7.9375 2.3685,1.185 2.8226,3.0513 5.1562,4.2188 1.0564,0.5284 4.0481,3.7187 5.5938,3.7187 2.5885,0 7.0774,-0.2801 5.125,-4.1875 -0.8406,-1.6823 -3.6728,-6.4863 -2.3438,-5.1562 1.0141,1.0147 2.2672,1.7977 3.2813,2.8124 1.5659,1.567 2.8104,1.9029 4.6563,3.75 1.1293,1.1302 3.9875,2.5139 6.0624,0.4376 2.061,-2.0623 1.9134,-3.5029 4.2188,-4.6563 0.918,-0.4593 6.0624,-1.1588 6.0625,-2.8125 0,-2.3349 -1e-4,-4.6651 0,-7 0,-2.8334 -0.4687,-4.2773 -0.4687,-7 0,-4.373 -2.8015,-1.9427 -3.25,-4.1875 -0.2924,-1.4624 0.039,-4.9975 -0.4688,-7.0313 -0.4487,-1.7957 -3.5576,-3.9101 -1.875,-5.5937 0.6523,-0.6527 4.6562,-1.779 4.6562,-3.7187 0,-2.3349 0,-4.6964 0,-7.0313 1e-4,-3.1839 1.253,-5.741 2.3438,-1.375 0.4057,1.624 3.25,3.4882 3.25,5.125 0,2.3349 0,4.6651 0,7 0,3.3321 0.7591,3.3607 1.875,5.5937 0.9601,1.9216 0.3154,4.0725 0.9375,6.5626 0.2204,0.8821 0.7114,4.8985 1.4063,5.5937 1.2729,1.2738 1.2382,3.2812 4.1874,3.2813 3.5168,-1e-4 3.2813,-0.2872 3.2813,-3.75 0,-2.3917 -1.875,-4.8 -1.875,-5.5938 0,-0.9607 -0.56,-7.0775 1.4063,-6.0938 2.0041,1.0029 1.6682,1.9914 2.7812,4.2188 0.8173,1.6357 1.3684,2.7426 2.8125,4.1875 0.5576,0.558 5.5938,3.2353 5.5937,0.4687 1e-4,-2.2708 -0.4378,-4.6864 0.9376,-6.0624 0.8643,-0.8649 5.0061,-3.451 4.2187,-1.875 -1.2996,2.6006 -1.1651,3.721 -1.875,6.5624 -0.7681,3.0744 0.3739,3.8591 -2.8125,4.6563 -1.3975,0.3496 -5.125,1.3146 -5.125,3.75 0,1.6888 -0.7354,5.5282 0,7 0.4249,0.8503 1.5685,4.2684 2.3438,4.6563 1.14,0.5704 5.0349,0.3779 6.0624,1.4062 1.4297,1.4306 1.5643,3.0327 2.7813,4.6562 1.4939,1.9932 3.3285,1.9214 4.6875,3.2813 1.9405,1.9417 3.1863,0.9375 6.0625,0.9375 2.1637,0 5.0637,0.5 7,-0.4688 2.081,-1.041 2.5964,-2.1579 4.1875,-3.75 1.1978,-1.1985 3.464,-3.6146 4.2188,-5.125 0.8464,-1.6938 1.7048,-3.6301 2.3124,-6.0624 0.534,-2.1372 -0.023,-4.6097 0.9376,-6.5313 0.9062,-1.8134 2.937,-4.2475 3.2812,-5.625 0.4593,-1.8386 0.4607,-4.1458 0.9375,-6.5313 0.5115,-2.5595 1.296,-4.1074 2.7813,-5.5937 1.1693,-1.17 4.0208,-5.23 3.2812,-3.75 -0.888,1.7772 -2.8126,2.5321 -2.8125,4.6875 0,2.1841 -0.2849,4.6459 0.4687,6.5312 0.3112,0.7783 0.6265,1.5343 0.9376,2.3126 0.071,-0.072 3.1496,-4.4184 1.4062,-7 -1.5468,-2.2906 5.0241,-2.2208 4.6562,-4.1876 -0.4655,-2.4889 4.2528,-4.0696 6.0626,-5.1562 2.1475,-1.2893 3.2762,-2.1896 5.125,-4.6562 1.2137,-1.6193 3.8503,-3.9179 5.1562,-6.5313 0.7695,-1.5399 1.7161,-4.3996 2.7812,-6.5313 0.7836,-1.568 2.8823,-5.8937 4.2188,-6.5624 1.7994,-0.9003 2.8981,-1.9305 4.6562,-3.25 2.6563,-1.9935 4.6563,-3.7555 4.6563,-7.9376 0,-2.9041 0.1432,-4.7984 1.875,-6.5312 1.375,-1.3759 3.8361,-3.2417 4.2187,-5.1562 0.3807,-1.9046 0.9063,-4.0851 0.9063,-7 0,-2.9576 0,-5.9176 0,-8.875 0,-2.3349 -1.65,-8.651 0,-7 0.7932,0.7937 1.3733,1.8085 1.875,2.8124 1.3917,2.7852 3.0034,4.9498 3.75,7.9376 0.6374,2.5515 0.4687,5.5644 0.4687,8.4062 0,2.2431 0.5389,5.312 0,7.4688 -0.6403,2.5634 -1.1864,4.2439 -1.875,7 -0.4409,1.765 -1.875,4.6034 -1.875,6.0624 0,2.2729 0.032,4.5276 -0.4687,6.5313 -0.5155,2.0633 -1.1945,4.0374 -2.7813,5.625 -2.0209,2.0223 -2.8125,2.4306 -2.8124,5.5937 0,1.6461 0.6405,6.3589 -0.4688,7.4688 -2.0382,2.0395 -2.3437,3.2712 -2.3438,6.5312 0,2.1115 -0.5086,4.9638 0,7 0.6305,2.5236 1.6085,3.2152 2.8126,5.625 0.5886,1.178 2.4895,3.9813 3.25,0.9376 0.8241,-3.2991 3.1561,-1.1401 6.0937,-1.875 3.3298,-0.8331 2.4026,-1.2956 3.25,-4.6876 0.3685,-1.4746 1.4793,-3.7545 3.2813,-4.6562 2.5951,-1.2984 4.6909,0.4518 5.5937,0 2.286,-1.1437 2.6571,-2.283 3.25,-4.6562 0.7505,-3.0039 1.4136,-3.7631 2.8125,-6.5626 0.9509,-1.9028 1.7431,-2.2521 2.3438,-4.6562 0.5502,-2.2024 2.3125,-4.9315 2.3124,-7.9375 0,-2.4905 1e-4,-4.9781 0,-7.4687 0,-2.1115 -0.5087,-4.9638 0,-7 0.7927,-3.173 1.0881,-7.1312 1.875,-10.2813 0.5708,-2.2844 1.8751,-2.782 1.875,-5.5937 0,-3.2839 0.8167,-7.9505 0,-11.2188 -0.8207,-3.2853 -2.293,-2.2915 -4.6562,-4.6562 -1.6031,-1.6042 -2.5999,-4.005 -4.6875,-6.0938 -2.5145,-2.5162 -4.7817,-3.7494 -5.5937,-7 -0.2375,-0.9507 -0.2146,-6.96 -0.4688,-7.4688 -1.741,-0.2902 -6.0876,-0.5177 -7,-2.3437 -1.0225,-2.0462 -1.9064,-3.7801 -3.2812,-6.5313 -0.8144,-1.6298 -1.6865,-3.5567 -2.3126,-6.0624 -0.3364,-1.3464 -0.1672,-5.2915 -1.4062,-6.5313 -1.5476,-1.5486 -1.8232,-3.1763 -2.8125,-5.1563 -1.1189,-2.239 -3.8885,-2.3125 -1.375,-2.3124 2.3356,-1e-4 6.5313,0.9304 6.5313,-1.875 0,-3.2855 0.2761,-4.5651 -2.3438,-6.5313 -2.2927,-1.7206 -3.3797,-4.2188 -6.0625,-4.2187 -6.7723,-1e-4 -1.0986,-1.8459 -4.2187,-4.1876 -4.1645,-3.1254 -1.375,-1.4548 -1.375,-4.6874 0,-2.1336 -0.5086,-4.7352 -1.4063,-6.5313 -0.9479,-1.897 -1.7478,-3.463 -2.8125,-5.5937 -0.2513,-0.503 -3.3676,-3.748 -3.25,-4.2188 0.6612,-2.6464 3.686,-2.1266 6.0625,-0.9375 2.4007,1.2011 4.9497,2.5339 7.9375,3.2813 2.7832,0.6962 3.1975,0.072 1.8438,2.7812 -1.9058,3.8138 -0.3797,2.3301 0.9374,5.625 1.5245,3.8135 3.305,5.4677 5.1563,7.9375 1.443,1.9253 3.7092,3.6797 4.1875,5.5937 0.5307,2.1241 2.3457,3.3245 3.7188,5.1563 1.7317,2.3105 2.3246,5.0982 3.75,7 0.9927,1.3246 3.1387,3.4951 4.1874,5.5937 1.1858,2.373 1.875,3.8546 1.875,7 0,3.5458 1.8476,4.1587 4.2188,6.5313 1.507,1.508 3.2319,2.3341 5.125,3.2813 1.9803,0.9907 3.8578,2.4471 5.5938,3.75 1.366,1.0253 4.6222,2.1905 6.5312,3.7187 2.5427,2.0355 4.1916,3.2527 6.5312,5.5937 1.4155,1.4164 4.2009,3.7623 5.5938,5.1563 1.2649,1.2657 2.0594,2.0271 3.75,3.7187 1.5995,1.6006 3.3116,2.8729 5.125,4.6876 2.461,2.4624 3.9141,0.4687 7,0.4687 3.7798,0 2.8452,-0.595 4.1875,-3.2813 1.0376,-2.0766 2.2221,-4.1875 5.1563,-4.1874 2.2543,-1e-4 4.7985,-0.071 6.5312,-0.9376 2.179,-1.0901 3.7668,-3.2998 6.0625,-4.2187 2.718,-1.0879 3.9025,-3.4117 2.3437,-6.5313 -1.0742,-2.1495 -0.472,-4.6616 -1.4062,-6.5312 -1.928,-3.8585 -7.6016,-6.699 -7,-7 -0.3111,-0.4669 -1.4392,-1.1553 -0.9375,-1.4062 1.2828,-0.6418 2.7533,-0.9375 4.1875,-0.9376 1.4916,0 5.8084,-0.7324 6.0938,-1.875 0.3586,-1.435 0.9341,-4.1942 2.7812,-4.6562 1.8553,-0.4641 4.5005,-0.4688 7,-0.4688 2.176,0 5.4331,0.087 3.75,-3.2812 -0.2659,-0.5321 -1.2217,-1.8095 -2.125,-2.75 -1.5458,-0.2789 -2.554,-0.4906 -3.9688,-1.9062 -2.1075,-2.109 1.9903,0.526 2.8126,0.9374 0.3238,0.1621 0.74,0.5354 1.1562,0.9688 0.6041,0.109 1.2835,0.1957 2.125,0.4062 2.3533,0.5888 3.6167,1.4656 4.1875,3.75 0.4471,1.7893 3.7188,3.476 3.7187,0 0,-3.5268 -1.2203,-2.939 -2.3124,-5.125 -0.9282,-1.8574 -0.061,-7.5623 1.4062,-6.0937 0,0.5103 -0.2933,2.9878 0,3.2813 2.2737,2.2751 2.6698,3.0256 3.7188,5.125 0.8272,1.6556 1.2519,3.1309 1.875,5.625 0.7663,3.0672 2.2501,3.4524 4.6562,4.6562 2.0465,1.0239 2.4208,2.4195 4.2188,4.2188 1.0029,1.0035 2.4543,3.3203 4.1874,4.1874 1.0537,0.5273 3.5106,1.9264 4.1876,3.2813 0.6516,1.3039 1.3221,3.634 2.3437,4.6563 1.3545,1.3552 2.2992,2.3295 3.7187,3.75 1.5066,1.5075 2.0093,2.4455 3.75,4.1874 1.2849,1.2857 2.0219,2.9896 3.7188,4.6876 0.6627,0.663 1.4898,1.3632 2.25,2.125 32.607,-51.5051 51.5,-112.5424 51.5,-177.9688 0,-3.5466 -0.077,-7.0738 -0.1875,-10.5938 -1.3985,-0.7866 -3.3454,-2.0371 -3.625,-3.1562 -0.4803,-1.9225 -2.7813,-2.9477 -2.7813,-4.6875 10e-5,-0.7939 -1.3239,-7.6351 -2.8124,-4.6563 -0.7312,1.4632 -0.9375,3.383 -0.9376,6.0626 10e-5,1.4684 -4.375,1.0302 -3.7187,2.3437 0.8093,1.6195 0.9375,3.3617 0.9375,6.0625 0,2.7805 1.375,3.467 1.375,6.0625 0,2.3349 0,4.6651 0,7 0,2.2729 -0.032,4.5589 0.4688,6.5625 0.4527,1.8121 2.3437,3.006 2.3437,5.5938 0,1.5874 0.6612,5.7313 -0.9375,6.5312 -1.4125,0.7067 -4.1785,-0.01 -6.0625,0.9375 -1.7582,0.8796 -2.9623,2.623 -5.5937,3.2813 -3.6364,0.9096 -2.8141,0.9074 -4.2188,3.7187 -0.4385,0.8775 -0.7704,5.9263 -1.375,6.5313 -0.9907,0.9913 -3.2812,2.7337 -3.2812,-0.9376 -10e-5,-3.3114 0.1447,-3.7187 -3.25,-3.7187 -3.2329,0 -2.3438,1.724 -2.3438,4.6563 0,2.0285 0.4805,5.1434 -0.9375,6.5624 -1.4342,1.4351 -5.5227,1.2599 -5.125,3.25 0.1556,0.7783 0.114,1.6339 0.4687,2.3438 0.6319,0.6323 0.8089,0.2105 1.4063,1.4062 0.6309,1.2627 1.8426,3.2441 2.3125,5.125 0.6301,2.5223 1.0615,3.4968 2.3438,6.0626 0.7963,1.5938 1.299,4.1108 2.3437,5.1562 1.1588,1.1596 2.7813,3.5866 2.7813,5.5938 -10e-5,2.7063 0.4686,3.9777 0.4687,6.5312 0,0.7556 0.4494,6.7752 0,7 -2.1055,1.0535 -6.429,-1.3477 -7,0.9375 -0.5295,2.1196 1.6495,7.0924 -0.4687,6.5625 -1.5822,-0.3958 -1.3788,-0.06 -2.3438,0.9062 -1.2076,1.2085 -3.2947,2.9902 -3.7188,4.6876 -0.5823,2.3306 -0.7251,4.843 -4.6562,4.1874 -0.9785,-0.1631 -8.9405,-2.8504 -9.3438,-2.3124 -1.2965,1.73 -2.7571,7.6916 -3.2812,5.5937 -0.3246,-1.299 -1.9119,-2.3437 -3.25,-2.3437 -0.3112,-1e-4 -0.6325,0.061 -0.9375,0 -3.4142,-0.6834 -3.3438,-1.9362 -5.5937,-4.1876 -2.2226,-2.224 -0.5099,-3.3618 -1.875,-6.0937 -1.0091,-2.0195 -1.8751,-1.8407 -1.875,-5.125 -10e-5,-3.7245 -1.7284,-4.1933 -2.3126,-6.5313 -0.3181,-1.273 0.2871,-5.0186 -0.4687,-6.5312 -0.5114,-1.0234 -2.3446,-5.6252 -3.2813,-6.5625 -0.7747,-0.7753 -2.4503,-3.8006 -2.7812,-5.125 -0.1015,-0.4063 -2.0299,-5.2798 -2.3438,-5.5937 -0.4088,-0.4093 -5.0148,-2.3721 -5.125,-2.8126 -0.2516,-1.0075 -2.1339,-5.0594 -2.8124,-2.3437 -0.4135,1.6547 -2.8125,4.7153 -2.8126,6.5625 0,2.3349 1e-4,4.6651 0,7 0,2.4769 0.5593,4.8361 1.4063,6.5312 0.7629,1.5268 0.9374,3.3699 0.9375,6.0626 0,2.6062 -0.126,4.4028 0.9375,6.5312 0.5583,1.1173 4.2618,5.0504 0.9375,4.2188 -1.5623,-0.3909 -4.1149,-0.864 -5.5938,-2.3438 -1.4146,-1.4155 -1.9162,-4.2175 -3.75,-5.5938 -2.0512,-1.5393 -2.2816,-3.2183 -3.25,-5.1562 -0.8727,-1.7466 -1.4061,-3.9511 -1.4062,-6.5312 0,-2.4905 10e-5,-4.9783 0,-7.4688 0,-1.368 0.5294,-6.2509 -0.4688,-7 -5.7287,-4.2993 0.9375,-2.4324 0.9376,-5.5938 -0.356,-1.4246 -3.7501,-0.8752 -3.75,-2.3437 0,-2.2013 2.4931,-4.9747 0.9374,-6.5313 -0.299,-0.2992 -4.6562,-3.3317 -4.6562,-3.75 0,-2.312 0.5011,-5.5276 -0.4688,-7.4687 -1.187,-2.3757 -2.8124,-2.5254 -2.8124,-3.7187 -1e-4,-3.4631 -1.2064,-5.3865 -1.8438,-7.9376 -0.7036,-2.8165 -2.9453,-2.1395 -3.75,-3.75 -0.9151,-1.8311 1.0475,-5.5659 -0.9375,-6.0624 -1.4317,-0.3582 -3.5277,-0.086 -4.1875,-1.4063 -0.6349,-1.2705 -0.887,-3.5151 -1.4062,-5.5937 -0.568,-2.2735 -2.2203,-5.0981 -2.8126,-7.4688 -0.8468,-3.3896 0.6327,-2.5376 3.2813,-1.875 2.486,0.6219 3.7188,1.1713 3.7187,-2.3438 0,-2.9991 0.3869,-4.1874 -2.7812,-4.1874 -3.4253,0 -3.75,-0.428 -3.75,-3.75 0,-3.5856 -0.32,-3.75 1.4062,-3.75 0.8625,-10e-5 7.0001,0.3731 7,-0.4376 1e-4,-1.6301 -0.6261,-5.9356 0.4688,-7.0312 1.7312,-1.7323 3.2813,-2.4823 3.2812,-5.5938 1e-4,-3.0075 -0.9374,-4.8081 -0.9374,-7.4687 0,-2.1114 -0.5088,-4.9636 0,-7 0.4415,-1.7675 5.5666,-0.1074 5.125,-1.875 -0.079,-0.3174 -1.3834,-3.3405 -0.9376,-5.125 0.6757,-2.704 2.474,-1.665 3.75,-4.2187 0.9643,-1.9298 0.333,-5.4128 3.7188,-3.7188 2.8001,1.4009 8.4062,7.32 8.4062,4.1875 1e-4,-1.4351 -0.5895,-2.7952 -0.9374,-4.1875 -0.5696,-2.2794 -0.014,-3.7347 1.4062,-5.1562 1.689,-1.6901 1.4062,-3.7742 1.4062,-6.5313 0,-1.7856 -2.2656,-5.2029 -1.875,-5.5937 1.6303,-1.6313 4.0438,-1.5292 7,-0.9376 2.8082,0.562 5.3648,0.9376 8.875,0.9376 2.9227,-10e-5 5.0694,-0.029 7,0.9374 0.7114,0.3559 5.529,4.2533 7,2.7813 1.0862,-1.0868 1.8896,-3.0894 3.7188,-4.1875 0.6302,-0.3784 7,-2.0463 7,-2.3438 0,-2.4905 0,-4.9781 0,-7.4687 0,-2.3348 0,-4.6651 0,-7 0,-1.4629 2.3134,-6.7158 2.8125,-4.2187 0.5221,2.6121 1.29,4.2207 1.875,6.5624 0.8,3.2021 1.693,2.1602 4.1875,4.6563 1.8808,1.882 2.322,2.8125 6.0625,2.8125 2.3231,0 3.6676,-2.5068 2.3437,-5.1562 -1.2793,-2.5604 -2.3437,-2.2704 -2.3437,-5.5938 0,-2.8019 0,-5.6043 0,-8.4062 0.902,1.2035 1.4633,2.8034 3.75,3.7187 2.0273,0.8114 4.7845,2.908 6.5313,4.2187 1.3594,1.0203 5.4301,-1.0798 4.6562,0.4688 -1.1576,2.3166 -0.3093,2.9392 1.875,5.125 0.4259,0.4261 4.6078,6.5191 4.6562,6.5312 1.559,0.39 4.9694,-0.7505 5.5938,-3.25 0.3429,-1.3722 0.5778,-4.6227 0.9375,-6.0624 0.3248,-1.3003 0.4072,-2.7354 0.4375,-4.1876 -20.062,-63.3677 -58.5567,-118.5695 -109.1875,-159.2812 -3.7311,0 -7.4563,0 -11.1875,0 -4.6213,0 -11.4105,-0.7654 -16.3438,0.4688 -2.3993,0.6001 -4.6353,2.1036 -7.4687,2.8124 -3.4954,0.8745 -6.2958,1.1775 -9.7813,1.875 -2.1067,0.4216 -5.5763,0.4688 -8.4062,0.4688 -3.069,0 -4.8539,-2.1584 -7.4688,-2.8125 -2.0433,-0.5112 -4.4241,-2.695 -7,-1.4063 -1.8366,0.9189 -2.3334,3.2813 -5.125,3.2813 -2.5843,0 -5.0866,-1.875 -7,-1.875 -3.523,0 -2.1808,-1.9959 -4.6874,-3.25 -3.0821,-1.5419 -1.3757,-0.5003 -2.7813,2.3125 -1.1235,2.2486 -1.9484,2.8125 -5.125,2.8125 -2.9556,0 -5.9194,0 -8.875,0 -2.7287,0 -5.6497,-0.4136 -7,0.9375 -1.7347,1.7359 -3.3958,1.875 -7,1.875 -3.1044,0 -3.7003,-0.4589 -5.5937,-1.4062 -0.9865,-0.4936 -3.8323,-1.5439 -5.1563,-1.875 -0.835,-0.2089 -5.8293,-1.6413 -6.5313,-2.3438 -2.1068,-2.1082 -3.5092,-0.1966 -6.5312,-1.4062 -0.7778,-0.3114 -1.5633,-0.5314 -2.3125,-0.9063 -3.1309,0 -3.5433,-0.599 -6.0937,-1.875 -1.8201,-0.9106 -4.2507,-0.7186 -7,-1.4063 -2.3457,-0.5868 -3.6927,-1.7508 -6.0626,-2.3437 -2.7109,-0.6782 -5.5788,-1.1677 -8.4062,-1.875 -2.5268,-0.6321 -3.941,-2.2132 -6.5312,-3.25 -2.844,-1.1383 -6.0777,-0.9825 -8.375,-3.2813 -1.5918,-1.5927 -3.7451,-1.8749 -7,-1.875 -3.63,0 -6.6694,0.4688 -10.2813,0.4688 -3.3304,0 -4.9581,-0.07 -5.5937,-3.25 -0.5033,-2.5181 -1.8751,-5.0012 -1.875,-7 0,-2.3395 -0.455,-5.1926 0,-7.4688 0.5455,-2.7297 0.8014,-3.9452 1.875,-6.0937 1.1522,-2.3059 1.4062,-3.8891 1.4062,-7 0,-2.6462 0,-5.2913 0,-7.9375 0,-3.5629 1.8004,-2.6926 3.25,-5.5938 0.7837,-1.5683 0.9374,-3.3426 0.9375,-6.0624 0,-3.2251 -0.8878,-5.072 -1.7187,-7.0938 -1.9334,-0.033 -3.8714,-0.062 -5.8126,-0.062 z m 132.75,469.0625 c -0.4428,0 -0.625,0.7371 -0.625,2.7188 0,3.2365 -2.407,1.7465 -0.9374,4.6874 1.1912,2.3839 1.2827,3.6925 1.875,6.0626 0.7457,2.9849 -0.085,4.8474 2.3437,6.0624 2.2632,1.1324 2.8107,1.8751 6.0625,1.875 1.6653,0 -1.8591,-6.0465 -1.875,-6.0624 -2.0399,-2.0413 -1.99,-1.5355 -3.25,-4.6876 -0.09,0 5.0566,1.975 6.5312,2.3438 2.4554,0.6142 -0.9202,-2.3263 -1.4062,-2.8125 -1.4258,-1.4268 -2.0795,-2.5161 -3.2812,-3.7187 -1.2692,-1.2699 -2.1866,-3.6235 -3.25,-4.6876 -1.0287,-1.0292 -1.7447,-1.7766 -2.1876,-1.7812 z m 96.1563,10.7812 c -0.1113,0.013 -0.1562,0.1226 -0.1563,0.3438 -1.881,0.3765 -4.6875,0.9249 -4.6874,2.8125 0,1.5423 0.3461,5.0015 1.4062,6.0625 1.2009,1.2016 2.7151,2.7142 4.2188,4.2188 1.2745,1.2753 1.9477,2.8842 3.7187,4.6562 0.7751,0.7756 5.0024,2.59 6.0625,0.4688 0.7703,-1.5416 1.1488,-3.3407 0.4688,-6.0626 -0.3129,-1.2522 -0.9342,-5.1562 -2.8126,-5.1562 -2.7291,0 -3.172,-0.7492 -4.1874,-2.7812 -0.1219,-0.2441 -3.2521,-4.6544 -4.0313,-4.5626 z m -79.2187,9.8438 c 0,0.028 0.054,0.135 0.1874,0.3125 1.354,1.8064 2.3438,2.8886 2.3438,5.5937 0,2.1116 -0.5088,4.9636 0,7 0.4639,1.8571 1.3119,3.2172 2.7812,4.6876 0.4516,0.4517 3.1211,3.444 4.2188,3.7187 2.143,0.5361 2.5791,1.672 4.1875,3.2813 1.2269,1.2277 3.3513,3.5868 4.6563,4.6562 1.0449,-0.8365 1.9431,-2.3125 3.2812,-2.3125 0.7886,0 6.1999,-0.3878 6.0625,-0.9375 -0.5376,-2.1517 -1.733,-2.9959 -2.8125,-5.1562 -1.0576,-2.1166 -2.2752,-1.7929 -3.7188,-3.7188 -1.2663,-1.6894 -2.9381,-1.7183 -5.125,-2.8125 -0.3205,-0.1603 -5.1348,-2.6957 -5.1562,-2.7813 -0.6093,-2.4387 -1.735,-2.7029 -3.25,-4.2187 -0.8891,-0.8896 -1.9362,-3.0458 -3.2812,-3.7187 -1.3882,-0.6945 -4.3623,-3.7887 -4.375,-3.5938 z m 93.4062,1.2812 c -0.222,0.025 -0.3437,0.1624 -0.3438,0.4376 10e-5,2.0316 0.113,5.0113 -0.9374,6.0624 -1.3211,1.3218 -2.2127,2.9865 -3.2813,5.125 -0.6815,1.364 -4.1875,2.9942 -4.1875,4.2188 0,2.3349 0,4.6651 0,7 0,2.0895 -0.4101,4.7721 0.4688,6.5312 0.9833,1.968 1.7755,4.1498 3.25,5.625 1.2715,1.2723 1.7255,2.6308 3.2812,4.1876 1.4611,1.4619 2.5201,1.875 5.5938,1.875 2.3333,0 4.6666,0 7,0 1.6165,0 5.402,0.6611 6.5312,-0.4688 1.5809,-1.5819 1.875,-1.7141 1.875,-5.1562 0,-2.7577 0.052,-5.8517 -0.4688,-7.9376 -0.707,-2.8301 -3.2869,-3.2716 -3.75,-5.125 -0.5912,-2.3664 -2.7812,-3.5534 -2.7812,-6.5312 0,-3.3574 -1.8557,-3.2026 -2.3438,-5.1562 -0.2962,-1.1861 -0.6769,-4.3069 -2.3124,-5.125 -1.0782,-0.5395 -4.6875,-3.82 -4.6876,-4.6563 -0.8089,-0.1619 -2.2402,-0.9803 -2.9062,-0.9063 z m -66.9062,28.7813 c -0.1487,0 -0.2117,0.029 -0.1876,0.125 0.476,1.9053 0.9375,3.2738 0.9376,6.0937 -1e-4,2.8868 0.9024,3.1787 1.875,5.125 0.92,1.8413 -0.063,4.5295 0.9374,6.5313 0.9616,1.9243 2.2298,2.7288 3.7188,4.2187 0.6055,0.606 5.1251,3.93 5.125,4.1876 -0.3112,0.7783 -0.9375,1.5055 -0.9375,2.3437 0,2.4209 -0.4375,4.6825 -0.4375,6.5313 0,2.4906 0,4.9782 0,7.4687 0,2.8287 -0.8486,4.5662 -2.8125,6.5313 -1.6073,1.6082 -2.8125,3.5194 -2.8125,6.0937 0,3.0553 -0.6042,5.2902 -2.7812,7.4687 -1.1792,1.1799 -1.7855,2.422 -2.3438,4.6563 -0.2289,0.9163 -2.2605,5.3702 0.4688,4.6875 2.3849,-0.5966 1.2022,0.9576 3.2812,0.4375 2.2138,-0.5537 6.6924,-3.633 7.9062,-6.0625 0.8578,-1.7167 4.3465,-4.954 5.625,-5.5938 1.6834,-0.8423 2.3512,-2.3624 4.1876,-3.2812 2.0259,-1.0136 2.503,-3.8608 4.1874,-5.125 1.5922,-1.1949 1.4206,-2.8258 2.8126,-4.2188 2.4095,-2.4109 4.1875,-5.395 4.1874,-10.25 0,-2.1113 0.5088,-4.9635 0,-7 -0.6958,-2.7849 -3.68,-3.5938 -4.1874,-5.625 -0.8017,-3.2087 -1.5943,-5.0301 -3.2813,-8.4062 -0.9336,-1.8684 -2.481,-2.9487 -4.1875,-4.6562 -1.1591,-1.1599 -2.366,-2.3964 -3.7188,-3.75 -1.2061,-1.207 -3.2831,-3.8362 -4.6874,-4.1876 -2.7152,-0.6791 -4.1136,-0.8995 -7,-2.3437 -0.1383,-0.069 -4.8342,-2.0256 -5.875,-2 z m -2.0626,10.875 c -3.0125,0 -1.8437,0.9365 -1.8437,4.1875 0,5.0168 2.7693,1.85 3.7187,3.75 1.7652,-2.944 1.7503,-1.6546 0.9376,-3.2812 -0.5379,-1.0766 -1.7402,-4.6563 -2.8126,-4.6563 z m 0.4688,10.2813 c 0.3007,0.6018 0,5.2853 0,7.4687 0,2.7264 0.047,4.5607 -0.9375,6.5313 -0.9527,1.9065 -2.4804,3.9414 -3.7187,5.5937 -1.0074,1.3439 -0.7422,5.2333 -1.4063,6.5625 -1.2334,2.4683 -3.5424,3.0119 -4.1875,5.5938 -0.5088,2.0364 0,4.8885 0,7 0,2.5297 -0.047,4.466 0.4688,6.5312 0.7412,2.9668 2.369,-0.6626 2.7812,-2.3125 0.6609,-2.6454 0.3938,-4.5364 1.4062,-6.5625 0.9755,-1.9521 1.8945,-3.7566 2.8126,-5.5938 1.0994,-2.2004 1.8437,-3.0671 1.8437,-6.0624 0,-2.2442 2.6632,-3.9093 4.2187,-4.6876 1.765,-0.8831 1.4063,-5.2049 1.4063,-7 0,-2.3348 0,-4.665 0,-7 0,-3.8422 -1.2023,-4.6675 -4.6875,-6.0624 z m -53.9062,17.125 c -0.9507,0.049 -2.0403,0.5396 -3.0313,1.5312 -1.0791,1.0798 -2.4084,2.0659 -3.25,3.75 -0.7757,1.5524 -1.7562,3.5589 -3.2813,5.5938 -1.5332,2.0455 -2.2241,3.5719 -3.25,5.625 -1.0659,2.1331 -2.3712,2.3663 -3.2812,4.1874 -0.7075,1.4158 -1.8438,2.8115 -2.3125,4.6876 -0.5386,2.1558 -1.9536,3.4033 -1.4063,5.5937 0.1765,0.7064 1.5974,6.8614 0.9376,6.5313 -1.9195,3.2009 -0.3255,4.4725 0.9374,7 0.6034,1.2075 1.8438,5.4051 1.8438,1.875 0,-3.224 0.4327,-3.2006 1.875,-5.125 0.9943,-1.3266 2.6437,-3.4117 3.2812,-4.6876 0.8388,-1.6783 1.7599,-3.1651 3.25,-4.6562 1.7578,-1.7588 4.1875,-2.8542 4.1876,-5.625 0,-3.2638 0.7111,-4.2178 1.4062,-7 0.4784,-1.9145 0.4687,-4.0587 0.4688,-6.5312 0,-2.5469 -0.073,-4.1136 1.4062,-5.5938 1.0501,-1.0508 3.4777,-2.494 2.8125,-5.1562 -0.3463,-1.3861 -1.3715,-2.0635 -2.5937,-2 z m 18.9687,31.4374 c -0.4236,-0.03 -0.9491,0.3663 -1.4687,1.4063 -0.8156,1.632 -2.1791,2.5129 -3.25,4.6563 -0.6735,1.3477 -3.2768,3.8908 -4.1563,4.6874 4.0329,1.6024 3.6516,-0.9001 6.0313,-3.2812 1.3474,-1.3483 2.7827,-2.3456 3.7187,-4.2188 0.5827,-1.1661 0.057,-3.1837 -0.875,-3.25 z m -45.875,1.25 c -0.259,0.018 -0.5324,0.078 -0.8437,0.1563 -2.0465,0.512 -2.7787,2.3116 -4.6563,2.7813 -1.532,0.3831 -3.989,3.5198 -4.6875,4.2187 -1.3931,1.394 -1.8491,2.8016 -2.3125,4.6563 -0.3991,1.5972 -2.5734,4.677 -3.2813,6.0937 -1.16,2.3216 -2.3437,3.2229 -2.3437,6.0625 -1e-4,2.335 0,4.6651 0,7 -1e-4,2.4853 3.7352,2.3398 5.625,2.8125 2.5164,0.6295 1.8437,-3.8625 1.8437,-5.625 1e-4,-2.9045 -0.5313,-4.3742 -1.375,-6.0625 -0.3041,-0.6085 0.1122,-1.3198 0.3438,-2 -0.1755,-0.6411 -0.2016,-0.9348 0.094,-0.3438 -0.022,0.1113 -0.055,0.2303 -0.094,0.3438 0.3619,1.3221 1.4745,4.3176 2.4375,5.2812 2.358,2.3596 -1.0886,3.2117 2.8125,4.1876 2.1766,0.5444 2.1323,-4.0064 3.7188,-5.5938 1.5457,-1.5465 3.1801,-1.7388 4.6874,-3.75 1.703,-2.2721 1.0906,-3.5758 3.25,-4.6562 1.7103,-0.8558 0.9375,-5.3231 0.9376,-7 -1e-4,-2.976 -1.8289,-3.6565 -2.8126,-5.625 -0.9009,-1.8029 -1.531,-3.0656 -3.3437,-2.9376 z m 21.9063,3.0626 c -0.1296,0.034 -0.2391,0.1341 -0.3438,0.3437 -0.2054,0.411 -2.9983,4.1257 -2.8125,4.2187 0.7489,0.3748 6.1568,2.6635 6.0625,2.7813 0.4206,-1.0521 1.9504,-2.7432 0.9375,-3.25 -1.466,-0.7335 -2.9368,-4.3299 -3.8437,-4.0937 z m -3.4063,8.7187 c -1.2102,0.064 -2.3216,0.2899 -3,0.9687 -1.2611,1.2621 -1.5164,3.8594 -2.8125,5.1563 -0.9778,0.9784 -3.6409,3.2169 -3.2812,4.6563 0.9985,3.9962 1.4937,0.7458 4.6874,2.3437 1.4689,0.7349 6.0088,2.5264 5.5938,4.1875 0.8197,-4.1009 3.7187,-0.666 3.7188,-4.6562 0,-2.3349 -1e-4,-4.6652 0,-7 0,-2.0751 0.9319,-5.625 -1.375,-5.625 -1.0145,0 -2.3211,-0.095 -3.5313,-0.031 z m 19.25,0.9375 c -0.094,-0.01 -0.2197,2e-4 -0.3437,0.031 -0.8088,0.2025 -5.2729,0.1214 -5.5938,1.4063 -0.1078,0.431 -2.0588,5.4669 -2.3125,5.5937 -1.8965,0.949 -5.0145,4.3594 -3.2813,6.0938 2.829,0.5662 3.2771,-0.4948 5.125,-2.3438 1.6482,-1.6494 4.2015,-2.7771 5.1563,-4.6874 0.8578,-1.7169 2.6622,-5.9759 1.25,-6.0938 z m -7.3437,0.9688 c 0.6222,-0.7784 -1.2216,1.5654 -1.8438,2.3437 0.7044,-0.7047 1.2216,-1.5654 1.8438,-2.3437 z m -21.8438,9 c -0.1328,-6e-4 -0.293,0.1053 -0.5312,0.3437 -1.4469,1.4477 -0.9376,8.1099 -0.9376,6.0625 0.9667,-1.2091 2.3984,-6.4024 1.4688,-6.4062 z m 4.375,5.5937 c -1.0519,0.045 -1.3881,1.8 -3.0625,2.2187 1.431,0.358 5.1746,1.8704 5.1563,1.875 6.1713,-2.4702 1.2664,-1.5452 0,-2.8124 -0.9663,-0.9669 -1.6157,-1.3019 -2.0938,-1.2813 z m -2.5625,4.5313 c -0.4369,0.033 -1.003,0.2818 -1.875,0.5 -1.226,0.3067 -5.049,3.5107 -2.3437,4.1874 2.4374,0.6098 4.4103,-0.6904 6.0624,-2.3437 -0.7679,-1.9211 -1.1155,-2.3985 -1.8437,-2.3437 z" style="fill: rgb(244, 42, 65); stroke: none;" id="Red Circle"/>
</svg>