<?xml version="1.0" encoding="UTF-8" standalone="no"?>
<!-- Created with Inkscape (http://www.inkscape.org/) -->

<svg
   xmlns:dc="http://purl.org/dc/elements/1.1/"
   xmlns:cc="http://creativecommons.org/ns#"
   xmlns:rdf="http://www.w3.org/1999/02/22-rdf-syntax-ns#"
   xmlns:svg="http://www.w3.org/2000/svg"
   xmlns="http://www.w3.org/2000/svg"
   xmlns:sodipodi="http://sodipodi.sourceforge.net/DTD/sodipodi-0.dtd"
   xmlns:inkscape="http://www.inkscape.org/namespaces/inkscape"
   width="297mm"
   height="210mm"
   viewBox="0 0 1052.3622 744.09448"
   id="svg2"
   version="1.1"
   inkscape:version="0.91 r13725"
   sodipodi:docname="Orange squares 01.svg">
  <defs
     id="defs4" />
  <sodipodi:namedview
     id="base"
     pagecolor="#ffffff"
     bordercolor="#666666"
     borderopacity="1.0"
     inkscape:pageopacity="0.0"
     inkscape:pageshadow="2"
     inkscape:zoom="0.7"
     inkscape:cx="292.08844"
     inkscape:cy="244.73208"
     inkscape:document-units="px"
     inkscape:current-layer="layer1"
     showgrid="true"
     inkscape:window-width="1920"
     inkscape:window-height="1017"
     inkscape:window-x="-8"
     inkscape:window-y="-8"
     inkscape:window-maximized="1">
    <inkscape:grid
       type="xygrid"
       id="grid4136" />
  </sodipodi:namedview>
  <metadata
     id="metadata7">
    <rdf:RDF>
      <cc:Work
         rdf:about="">
        <dc:format>image/svg+xml</dc:format>
        <dc:type
           rdf:resource="http://purl.org/dc/dcmitype/StillImage" />
        <dc:title></dc:title>
      </cc:Work>
    </rdf:RDF>
  </metadata>
  <g
     inkscape:label="Capa 1"
     inkscape:groupmode="layer"
     id="layer1"
     transform="translate(0,-308.26772)">
    <path
       style="opacity:1;fill:#ffb380;fill-opacity:1;fill-rule:nonzero;stroke:none;stroke-width:3;stroke-linecap:round;stroke-linejoin:round;stroke-miterlimit:4;stroke-dasharray:none;stroke-dashoffset:0"
       d="m 251.11921,364.89756 c -8.82469,1.43247 -15.08012,13.46022 -22.1018,2.60259 -10.85253,9.61522 -27.12297,0.95588 -33.34283,17.18655 -6.30732,18.14263 -12.33996,37.01812 -13.1297,56.29695 7.32292,8.20453 -20.03376,5.37849 -3.78968,9.93943 -8.47742,4.07783 0.76691,13.66339 -10.34755,17.14614 10.47258,6.1482 -4.46353,19.13091 10.04271,21.00682 3.57071,0.71258 0.24411,3.532 3.9501,5.92975 -9.29835,4.8597 10.20852,15.29992 -6.13382,15.2904 14.02033,3.12883 -10.66306,9.2414 1.84304,13.8237 2.32624,8.69809 -1.53776,9.32654 0.48039,10.18049 9.67927,-3.78962 7.14766,8.58272 -1.37354,10.4004 11.37697,-0.52238 -8.17943,1.85481 3.64047,5.10541 1.27948,4.62325 4.18436,8.93098 -2.03353,10.45151 10.96442,1.12983 -5.32796,11.61409 5.8358,13.90506 3.03853,5.41038 1.35122,8.44198 -4.04777,10.59414 6.48611,-2.75092 10.27598,3.37616 1.08699,1.45039 -0.74263,-0.25623 6.80046,5.27826 -0.0894,8.70936 5.07066,2.27529 6.98883,0.22386 1.62347,-0.55473 7.73027,-3.71485 6.32896,2.43036 -0.13732,3.07677 8.00527,0.9621 -5.83522,4.30798 4.32217,4.73064 1.28287,-0.1196 -11.0636,5.75684 -1.76535,6.83823 -9.6801,0.83602 5.67355,2.7093 -2.47887,4.28238 3.44973,10.36293 14.78101,6.782 23.15493,5.67954 -3.27632,10.40028 -5.63868,25.57096 9.86309,25.21319 9.08126,13.24904 27.02122,12.20019 37.35437,5.05906 10.73413,12.18912 24.68239,14.01558 36.99917,3.29632 14.70566,-7.78119 32.65647,-9.19614 48.03712,-1.61746 -1.475,-6.87343 14.66981,1.40621 10.68018,-6.88504 5.27984,-2.58598 7.57475,-8.53466 8.38732,-0.44401 9.48056,-5.97806 21.76162,9.06449 25.16282,-1.86756 1.363,-3.44473 12.96278,-1.04609 18.9383,-1.7217 0.46977,14.33823 15.75389,-7.55182 14.70407,1.33201 -5.27761,-10.54835 14.46626,3.02411 21.24598,2.00294 14.50582,6.22155 21.12072,-9.95853 18.40429,-19.02989 1.94948,-6.52884 10.85509,-4.63136 8.03837,-8.78334 -1.32557,-5.877 1.8813,-6.18833 5.07856,-10.74807 -12.29604,-13.55388 14.22441,-19.26457 3.29283,-33.19564 -6.64231,-9.76022 19.13398,-11.4895 4.78356,-21.44311 -2.04516,-2.02351 -7.03686,-18.67413 -1.47476,-10.56487 -2.28287,-4.67149 -11.6932,-19.72531 -2.71815,-12.41085 12.00632,-7.71379 -9.89741,-15.45277 6.578,-19.92178 16.15408,-10.98488 -9.18827,-23.90609 4.7216,-36.00028 -8.97425,-10.69844 5.84137,-28.72406 -8.3911,-36.5372 9.50223,-2.30947 -3.40772,-18.28278 1.32489,-18.53942 -2.2499,-9.83862 5.43146,-12.49587 -1.69643,-21.13792 14.20275,-2.01094 -10.2698,-2.66653 -0.80248,-12.80302 4.67603,-10.09732 -22.64731,7.29226 -22.90784,-4.3652 -6.96295,-9.57314 -22.88048,1.98057 -28.53046,-10.38229 -12.40257,-1.13269 -24.90051,5.19785 -34.74016,7.00935 -11.64372,-7.1521 -28.19501,-11.55166 -37.18636,-0.53951 -11.01215,-10.1079 -24.81382,8.43522 -34.81801,-2.49817 -5.98083,-3.07192 -16.72878,4.77068 -25.75644,0.68489 -11.73362,0.39917 -21.49213,-8.18799 -32.23053,-4.55701 -2.37957,-1.19054 -4.79302,-2.63924 -7.55069,-2.67634 z m 89.53465,6.63274 c 4.09052,-3.13653 5.20042,-4.94551 0,0 z m 140.91458,21.55457 c 2.66428,-0.49699 9.3e-4,-1.82095 0,0 z m -3.68242,24.62569 c -2.79666,2.49913 2.52278,1.87996 0,0 z m -2.06266,121.86192 0.29367,0.50032 -0.29367,-0.50032 z m -88.81537,101.34143 c -2.47277,1.50511 3.9712,2.1178 0,0 z m 1.03774,1.34157 c 3.22396,4.58508 7.33417,0.0602 0,0 z m 4.05761,0.89681 c 3.18778,1.9734 -0.0969,-2.90295 0,0 z m -5.60599,-1.33973 c -0.86406,-0.45089 -0.67165,3.08208 0,0 z m -0.57102,1.04872 -0.13756,0.28175 0.13756,-0.28175 z m 0.43193,-1.08899 c 2.65018,-4.29732 -9.26395,0.28023 0,0 z m -29.67894,0.61862 c -9.09672,0.42963 -5.03364,5.91142 0.96818,1.20429 l -1.3269,1.41294 0.35872,-2.61723 0,0 z m 0.0622,2.58794 c -3.0747,2.49463 1.33803,-0.29888 0,0 z m 0.20132,-0.0202 c 11.78642,0.47204 6.78958,-5.87322 0,0 z m -1.04505,0.95904 -0.47716,0.47183 0.47716,-0.47183 z M 185.27867,578.79056 c -2.04191,-1.88079 -0.79032,0.21204 0,0 z m -1.07068,-0.64057 c -0.1811,-0.39032 -1.33584,-0.48153 0,0 z m -0.0604,-0.0878 c 5.04373,1.7576 -6.38782,-7.3745 0,0 z m -1.19514,-19.7097 c 8.21933,-1.8535 -3.99607,5.21432 0,0 z m 1.81559,2.02423 -2.28962,0.20133 2.28962,-0.20133 z m 196.35577,77.70223 c 1.02124,3.08728 -2.99814,1.09095 0,0 z"
       id="path4142"
       inkscape:connector-curvature="0" />
    <path
       style="opacity:1;fill:#ff6600;fill-opacity:1;fill-rule:nonzero;stroke:none;stroke-width:3;stroke-linecap:round;stroke-linejoin:round;stroke-miterlimit:4;stroke-dasharray:none;stroke-dashoffset:0"
       d="m 609.55628,362.51799 c -2.26017,20.34176 -34.42616,-1.22539 -35.64787,19.46785 0.91131,18.39882 -13.99232,34.22224 -9.49329,53.21682 7.9923,16.69892 -2.68542,35.05277 -6.13381,49.59547 2.88326,16.50446 -19.19126,31.11043 -3.96431,47.24894 10.23692,15.26106 11.70094,32.99846 5.70212,49.67159 -4.28177,14.11982 0.66765,25.34355 7.0894,38.61973 0.51456,7.16664 6.70479,28.61268 21.12559,18.2822 18.92299,-9.42725 39.32887,2.15666 58.89614,2.04257 10.22477,2.43216 14.66736,-7.38655 24.61498,-0.10719 15.96982,6.03674 32.04772,-4.9968 47.5393,4.46437 13.50077,6.79576 27.62839,-1.49879 40.39113,5.00012 11.24935,-5.01129 -9.19515,-13.33162 3.3193,-8.65827 15.10533,3.23208 32.36149,2.52136 46.05265,-3.19926 -2.49013,10.13524 29.8119,8.22061 25.31052,0.71755 -13.65235,-0.008 11.38688,-2.02009 13.79782,-7.89178 7.93961,-5.31716 -2.01543,10.51831 6.77943,1.66413 11.28851,-12.82391 11.33833,-30.71903 12.92277,-46.73911 1.3772,-17.70936 -11.79567,-32.78006 -2.32355,-50.70668 -2.32753,-16.41818 4.05046,-33.8025 -0.84003,-49.52586 -8.28706,-8.15657 -12.2047,-24.5848 -10.21907,-36.88417 1.85031,-12.67454 1.7291,-24.97721 -0.47885,-37.40298 0.87298,-11.33855 5.30093,-23.84806 0.87908,-35.02829 -14.55037,-6.32033 -32.17942,-5.91232 -47.0485,-1.28304 -16.73464,11.25165 -22.9749,-13.05748 -38.7522,-11.07325 -17.06097,1.52345 -32.69554,13.75107 -49.88718,8.44128 0.46539,-5.85292 14.9159,-7.4195 3.31109,-3.9181 -7.71994,-1.71782 -19.04908,-2.22486 -23.15608,-1.12545 -9.29003,-6.18997 -22.25994,5.10795 -30.96271,3.26357 -16.39577,0.85626 -32.36173,5.36874 -48.11272,-3.44341 -3.61382,-1.46895 -7.16932,-3.07611 -10.71115,-4.70935 z m 36.27068,10.97083 c 10.13771,0.40029 -3.98144,-7.21473 0,0 z m -0.94626,-3.26969 c 1.13587,-4.98248 -2.48107,-0.95755 0,0 z m -0.28361,-0.0657 c -5.89678,-1.32714 4.22996,4.45463 0,0 z m 29.8907,-2.42766 c 6.49251,8.07125 9.04194,-12.284 0.76799,-0.58856 l -0.68269,0.52319 -0.0853,0.0654 z m 179.49403,32.93393 c -1.44074,-0.32503 0.71159,1.48524 0,0 z m 2.27817,1.83536 0.69774,0.25404 -0.69774,-0.25404 z m -48.76424,239.92826 c -6.12575,-2.52418 -7.43499,4.84896 0,0 z M 666.43398,377.3137 c -3.28278,2.81332 -5.41,2.56297 0,0 z m 142.0743,1.77115 c 1.36694,-0.2069 -0.39663,1.68612 0,0 z m -233.1751,7.11312 c -0.28243,1.54219 -0.17903,0.97758 0,0 z m -8.65683,144.84581 c 0.92883,2.38983 -3.65567,0.83058 0,0 z m 1.39023,35.41865 c -0.88201,2.19241 -3.00318,-1.04625 0,0 z m -1.41938,0.17127 c 0.20295,1.24486 -1.08693,-0.39689 0,0 z m 296.11867,31.92345 c 6.21784,-8.9e-4 -1.71347,2.7841 0,0 z m -294.41965,1.48141 c 0.59945,0.96039 -1.53657,1.13089 0,0 z m 215.29157,35.67556 c 3.3366,0.21891 -0.99969,2.38615 0,0 z m -2.02241,0.725 c 2.00137,0.62976 -1.94748,0.56548 0,0 z m 31.46251,2.8073 c -0.0581,4.09668 -5.46443,0.3102 0,0 z m -46.82532,3.69071 c -2.78625,-1.29089 -0.38349,1.26463 0,0 z"
       id="path4158"
       inkscape:connector-curvature="0" />
    <path
       style="opacity:1;fill:#ffb380;fill-opacity:1;fill-rule:nonzero;stroke:none;stroke-width:3;stroke-linecap:round;stroke-linejoin:round;stroke-miterlimit:4;stroke-dasharray:none;stroke-dashoffset:0"
       d="m 805.55646,698.7131 c -1.44278,0.12012 -2.92337,0.91904 -4.29839,1.55281 -1.65457,-0.25034 -4.07329,9.4e-4 -5.50575,-0.14345 -2.4261,-0.24515 -4.86844,0.22621 -7.30321,0.33889 -4.63108,1.00701 -6.7937,1.56254 -7.72427,1.82892 1.21836,-0.47046 3.18637,-1.69503 -4.33052,-2.48698 -1.56961,-0.16536 -3.3417,0.18305 -4.59432,1.19956 -2.08885,1.69513 -2.3388,6.06812 -4.93251,6.53215 -20.14116,3.60331 -15.67274,-10.70664 -18.17264,3.30103 l -3.07586,-1.99209 c -0.81383,-0.81616 -1.54125,-1.75186 -2.36056,-2.5605 -0.56093,0.53179 -2.22902,1.49556 -2.95409,1.94367 -0.33267,0.20561 -5.26613,2.33603 -5.73909,1.96162 -0.37254,-0.82004 -0.64776,-1.4713 -0.87422,-2.02617 3.05117,-0.88712 6.07281,-2.00814 9.21061,-2.2252 -0.26691,-0.23938 -0.5427,-0.4645 -0.8404,-0.66163 -0.89493,-0.59255 -2.10065,-0.37962 -3.07077,-0.81943 -1.19044,-0.5397 -2.08903,-2.41793 -3.34639,-2.09071 -1.22447,0.31865 -1.23968,2.33041 -1.91585,3.45883 -0.18966,0.31651 -0.39367,0.62244 -0.59521,0.9306 -0.70892,-1.82261 -0.62609,-1.35214 -4.03293,-3.3907 -2.93004,5.07601 -18.06954,-2.83378 -24.20935,2.79718 -1.1249,1.03167 -0.98016,3.6957 -2.4468,3.9573 -1.50949,0.26924 -2.22213,-2.51589 -3.7184,-2.85814 -1.10888,-0.25365 -2.12154,0.85234 -3.18238,1.27845 l -3.21787,-1.56714 c -6.07193,-1.30313 -2.37113,-0.99922 -8.93161,-0.24744 -1.57347,0.18032 -3.26001,1.06753 -4.72959,0.44468 -2.25792,-0.95697 -3.29592,-4.33899 -5.67822,-4.85562 -4.33236,-0.93952 -5.80053,7.29382 -6.40362,9.02451 -0.61704,1.15092 -0.69839,2.94615 -1.85161,3.45343 -4.81403,2.11759 -0.30859,-4.96784 -5.01366,-1.33045 -4.69662,3.63086 -7.6359,10.5108 -13.28074,11.97947 -4.21934,1.0978 6.29254,-6.5769 8.27552,-10.67592 0.55133,-1.13964 -0.93003,-2.36453 -1.39503,-3.54667 -4.26276,4.19357 -3.38321,4.98518 -10.36215,3.50723 -4.19429,-0.88824 -7.46572,-4.93005 -11.6236,-1.84147 0.50792,-1.58612 0.97404,-1.96705 -0.88606,0.78535 0.0631,0.007 0.12631,0.012 0.18938,0.0198 -0.77835,1.52464 -2.01603,5.52598 -2.2794,6.32773 -0.41459,-0.36642 -1.11402,-0.98277 -1.8127,-1.67293 -0.71467,0.75095 -1.49235,2.12588 -2.36564,1.85941 -0.93924,-0.2866 -1.39827,-1.66564 -2.36058,-1.84685 -5.27304,-0.99302 -10.78564,-0.29103 -15.9947,-1.61017 -4.08675,-4.05705 -1.80844,-3.03561 -6.49833,-3.78876 -9.68736,10.92473 4.26916,-2.58799 -8.72192,1.92396 -0.60344,0.20958 -0.97322,0.83889 -1.27667,1.56713 0.31002,-1.37167 0.31214,-1.41948 -0.36187,0.12015 0.0859,0.0399 0.17226,0.0785 0.25703,0.11834 -0.47627,1.23583 -0.80321,2.67107 -1.64868,3.00697 -0.0319,0.0705 -0.0279,0.0638 -0.0609,0.13628 -5.28868,0.18522 -8.98779,0.41389 -11.71997,0.64371 -0.0221,0.30983 -0.0577,0.27138 -0.1319,0.0108 -0.56995,0.0486 -1.21596,0.0968 -1.69095,0.14524 0.31609,-0.33274 0.42811,-0.75739 0.16571,-1.29639 -0.23939,0.35296 -0.49619,0.80635 -0.76769,1.36631 -6.89959,0.77119 -2.52004,1.4283 -0.21475,0.45903 -2.61729,5.72114 -6.42468,19.66137 -8.85721,31.25675 -1.21722,0.62396 -2.42348,1.22775 -2.71228,2.49952 -0.33906,1.49312 0.6052,2.86623 1.41194,4.28364 -0.51228,2.98209 -0.87643,5.61091 -0.9892,7.52729 0.0939,0.44095 0.1235,0.54128 0.30944,1.47031 -0.11336,-0.49232 -0.22857,-0.98069 -0.31283,-1.38066 -0.11327,2.04156 0.0371,3.32197 0.54957,3.46241 0.0663,1.24172 -0.60162,2.81585 0.19953,3.72421 0.19175,0.2174 0.40884,0.0413 0.63917,-0.24745 0.18895,0.98381 0.27119,1.37826 0.50222,2.59816 -0.18137,2.21838 0.59647,4.7865 -0.54448,6.65586 -1.64508,2.69528 -7.07025,2.73448 -7.14596,5.94402 -0.0723,3.06779 4.8802,3.40028 6.8737,5.62485 1.95395,2.18042 3.7847,6.47921 3.20099,9.69152 -0.29094,1.60106 -1.3622,2.92368 -2.04268,4.38584 -0.56512,1.38698 -1.64608,2.65167 -1.69434,4.16171 -0.3729,11.66892 2.48459,-1.83695 2.971,7.66714 0.0851,1.66416 -0.98382,3.19476 -1.13293,4.85385 -0.19096,2.12474 0.18687,4.26984 0.12007,6.40303 -0.0709,2.26439 -0.35486,4.51463 -0.53267,6.77241 -1.16443,1.96364 -2.90038,3.65752 -3.4935,5.89022 -0.98578,3.71086 1.12083,7.65164 3.09275,10.3711 1.08892,1.50172 3.46671,2.18027 3.76068,4.04875 -3.18997,3.95802 -3.15704,1.94228 -1.53877,5.8203 -0.1012,0.74538 -0.54628,1.52855 -0.30267,2.23594 0.35553,1.03241 3.98347,1.23736 2.06464,3.72061 -1.62469,2.10261 -4.72265,2.52844 -6.30894,4.66377 -2.27715,3.06534 -2.17509,10.50539 -2.38254,13.85144 0.52575,2.59353 2.66647,5.39264 1.57596,7.78012 -1.32843,2.90837 -7.03756,2.21844 -7.59575,5.39533 -0.47885,2.72528 3.97287,3.64644 5.63087,5.78982 0.95709,1.23727 1.2676,2.92352 2.12721,4.23881 0.76529,1.17093 3.01023,1.7742 2.7106,3.16296 -0.24835,1.15108 -2.21984,-0.19869 -3.32948,-0.29765 -0.11522,0.6649 -0.31743,1.32029 -0.34496,1.99568 -0.0814,1.99731 -0.26088,1.90666 0.78968,2.69858 1.04448,0.78733 3.78967,1.14565 3.15701,2.32739 -8.20099,15.31839 -4.48016,-5.91478 -5.98766,5.16762 l 0.23165,2.79538 c 2.10638,0.89894 5.69266,0.38253 6.3191,2.69678 0.57206,2.11346 -4.83517,2.64391 -4.29841,4.76776 0.63616,2.51726 5.59672,1.33103 6.45605,3.77261 1.85122,5.25979 -7.69395,7.03581 -0.19615,5.02418 0.82837,0.54607 3.3203,1.10476 2.48401,1.63706 -2.08663,1.32818 -3.61534,2.21424 -4.7837,2.81334 1.78934,-1.72292 2.80762,-1.03382 -2.32507,-1.61018 -0.98485,1.99423 -1.64198,3.64481 2.32338,1.61196 -0.65919,0.63513 -1.4012,1.60164 -1.94122,3.08766 -0.34735,0.95589 -0.25902,2.6466 0.60029,3.05359 0.63766,-0.63036 1.28188,-1.26403 1.61824,-1.76976 0.41435,0.5747 1.26786,1.00971 1.2716,1.71598 2.87942,-0.59365 6.21797,-2.01265 5.24195,-0.22234 -0.96197,1.76451 -2.96027,2.66661 -5.08639,2.97111 0.79193,-0.0963 1.7471,-0.33454 2.36903,-0.23131 0.66473,0.11034 1.29712,0.3755 1.94628,0.56302 -0.74582,1.84199 -4.46663,-0.8659 -4.68732,0.79613 -0.25843,1.94643 2.5314,2.88944 3.59328,4.50057 1.64662,2.4984 3.98506,4.7974 4.50808,7.7945 1.60345,9.1888 -1.19094,7.788 -2.66663,6.4641 1.00444,1.1876 3.03911,3.7628 6.83144,9.0299 l 24.85868,4.1222 c 1.51719,-1.5734 2.43681,-4.5379 4.55204,-4.7193 2.52808,-0.2167 4.24141,3.2694 6.73674,3.751 1.56382,0.3019 2.96891,-1.2591 4.53007,-1.576 9.75268,-1.9803 4.06559,2.3854 11.19578,-6.8334 16.94771,11.5214 7.10209,10.3688 19.45101,4.4594 2.20076,-1.0532 4.44641,-2.6228 6.85682,-2.4745 2.97729,0.1834 5.44172,2.7038 8.34823,3.4122 5.45267,1.3289 5.42004,-0.1113 9.06181,-3.4498 -3.49301,-1.026 -6.98582,-2.0528 -10.47883,-3.0787 0.23614,0.01 0.45484,-0.049 0.64087,-0.2206 1.8584,-1.7176 2.32983,-4.6707 3.98557,-6.6075 0.27596,-0.3226 0.81523,0.4938 0.87254,0.9253 0.11736,0.8839 -1.23219,2.5167 -0.39907,2.6447 1.22728,0.1883 2.04383,-1.491 3.06569,-2.236 0.7795,0.7047 1.33074,2.3078 2.33858,2.1141 1.67831,-0.3227 2.33424,-3.4809 4.03463,-3.3387 15.28168,-14.30305 12.90816,7.4748 19.99211,9.1554 1.94747,0.462 5.256,-4.153 6.20411,-5.2949 0.16816,-0.4107 0.31145,-0.8352 0.45992,-1.257 -0.61179,-0.01 -1.23012,-0.068 -1.85327,-0.1596 0.70874,-0.8369 1.36625,-1.7155 2.13229,-1.2802 0.0812,0.046 0.14906,0.1031 0.21474,0.1614 0.13357,-0.3081 0.27882,-0.6089 0.45149,-0.8948 0.32286,-0.5347 0.83672,-0.9693 1.39335,-1.2031 0.0269,-0.011 0.0593,-0.01 0.093,0 0.80106,1.2603 1.71064,2.4699 0.73217,2.8635 -0.69739,0.2806 -1.41423,0.4316 -2.14243,0.4949 0.15643,1.335 -0.24061,3.13 0.62734,4.0309 0.70991,0.737 2.03988,-0.4409 2.77655,-1.1476 1.3695,-1.3139 2.21392,-3.134 3.32103,-4.7014 l 10.20319,1.9561 c 0.13039,-0.065 0.13683,-0.059 0.0456,0.01 l 4.97648,0.9539 c 0.0725,-1.6431 -1.07063,-4.0121 0.21813,-4.9273 1.03608,-0.7359 1.2045,2.3432 2.04436,3.3207 0.21988,0.256 0.68739,-2e-4 0.96552,0.1811 0.61283,0.3995 2.33276,1.3801 1.62332,1.5062 -3.67408,0.6533 -7.42598,0.5125 -11.16028,0.5541 -0.38109,1.0212 0.04,2.3644 3.42926,3.5897 1.64316,0.5939 3.02656,-1.829 4.63996,-2.5085 1.3109,-0.3678 2.62227,-0.735 3.93316,-1.1028 0.97379,0.797 1.71157,2.6229 2.92196,2.3902 1.8462,-0.3549 2.89932,-2.5257 4.34912,-3.7889 12.94341,-27.91765 14.44062,7.8316 21.57316,5.6986 1.59496,-0.4771 0.33167,-4.1104 1.80764,-4.9095 1.16277,-0.6295 2.1044,2.413 3.37682,2.1033 0.22586,-0.054 0.42195,-0.127 0.60367,-0.2098 -0.46368,-0.1849 -0.91706,-0.3907 -1.35614,-0.6222 -1.22906,-0.6483 1.17187,-2.2234 2.50937,-3.371 -8.4e-4,0 -8.5e-4,-0.01 -0.002,-0.01 9.4e-4,0 0.002,0 0.004,0.01 0.17123,-0.1471 0.33043,-0.2897 0.45657,-0.4197 0.6326,-0.6518 1.46284,-2.039 2.21007,-1.542 1.03614,0.6891 0.71142,2.4815 1.06698,3.7224 0.58854,1.6717 0.88965,2.6475 1.10082,3.3621 -0.63944,0 -1.27738,-0.052 -1.91247,-0.1256 0.59038,0.9541 1.25888,2.016 2.03761,3.2276 0.11966,-0.7542 0.10023,-1.5981 0.0677,-2.4511 0.28759,1.0248 0.0674,0.3444 0.3365,-0.6563 -0.11867,0 -0.23631,0.01 -0.3551,0.011 -0.0583,-1.688 -0.0359,-3.3236 1.11265,-4.2281 1.32008,-1.0396 5.19422,3.1153 3.60679,3.57 -0.0536,0.015 -0.11013,0.024 -0.16401,0.039 0.1872,0.7246 0.39009,1.4086 0.93002,1.3627 5.94303,-0.5052 11.38198,-4.6223 17.34409,-4.6315 1.98134,0 2.08261,4.6533 4.06335,4.601 1.59203,-0.041 1.10698,-3.1663 1.66052,-4.7499 1.20557,1.6622 1.78886,4.1855 3.61693,4.9849 0.91478,0.3998 0.92307,-1.8847 1.12449,-2.912 0.20729,-1.0574 0.20227,-2.1458 0.22828,-3.2293 4.64616,0.1697 5.78631,0.3947 9.31545,1.5277 -0.23709,1.707 -0.23188,1.0871 0.14204,0.044 0.71497,0.2303 1.51908,0.4934 2.47894,0.8034 0.75231,-0.062 1.50509,-0.1233 2.25742,-0.1848 0.13246,-0.2609 0.22836,-0.5675 0.3179,-0.8821 0.6324,-0.081 1.26882,-0.2013 1.93782,-0.067 0.64211,0.1293 1.18366,0.588 1.7755,0.882 l 0.96385,-0.1757 c -1.4306,-0.4852 -2.79789,-1.2438 -4.1513,-2.0619 0.14268,-0.2181 0.32239,-0.3896 0.56816,-0.4788 0.88095,-0.3193 1.65612,1.847 2.47387,1.3753 0.94403,-0.5447 -0.12943,-3.7514 0.85563,-3.2957 1.11544,0.516 2.79688,2.5983 3.27198,3.9089 l 8.21634,-1.5026 c -0.12187,0.035 -0.24551,0.062 -0.36694,0.099 -1.48469,0.4497 1.87433,1.2884 3.28214,1.1815 1.05989,-0.081 2.11819,-0.1725 3.1773,-0.2635 -0.0755,-0.3743 0.16909,-0.8145 0.99089,-1.2623 0.51982,0.4357 0.83995,0.7812 1.07376,1.083 0.0508,0 0.10145,-0.01 0.15218,-0.014 -0.0132,0.039 -0.0281,0.1339 0.0102,0 3.96644,-0.3612 7.92963,-0.7657 11.89585,-1.1295 2.7991,-1.0808 6.66906,-0.6692 8.39727,-3.2419 8.1306,-12.10412 5.72503,-19.0474 7.24403,-31.62262 0.29795,-2.46668 1.90981,-4.80681 1.58104,-7.26908 -0.77054,-5.77083 -6.75681,3.22339 -0.48024,-4.32309 -0.28852,-0.76075 -1.50999,-3.27865 -1.21747,-4.49702 0.27627,-1.15073 1.67325,-2.09532 1.38826,-3.24365 -0.21684,-0.87375 -1.83192,-0.23024 -2.41467,-0.88936 -0.42272,-0.47812 -0.0721,-1.30916 -0.10822,-1.96341 l -4.48609,-2.99083 c -2.28955,-12.17594 -1.02212,0.60114 3.09443,-15.88658 0.80748,-3.23413 0.16434,-6.71873 0.75416,-10.00531 0.5882,-3.27755 3.91398,-6.46837 2.75795,-9.57138 -1.28453,-3.44792 -6.02463,-3.83742 -8.66105,-6.27215 -1.19602,-1.10452 -1.99808,-2.59657 -2.88308,-4.0075 -0.15866,0.60211 -0.35772,1.18982 -0.61211,1.74823 -2.35866,5.17731 -5.34116,10.01853 -8.31949,14.82328 -1.31691,2.1245 2.48287,-4.38286 3.32441,-6.76343 1.57172,-4.44616 2.59203,-9.09108 3.8875,-13.63628 9.48158,-10.70311 2.03514,0.48118 3.24154,-9.44408 0.4318,-3.55239 4.46731,-5.59489 2.28618,-9.77041 -1.00706,-1.9279 -4.52614,-2.06 -4.77693,-4.24779 -0.21241,-1.85288 2.56795,-2.55326 3.85198,-3.82998 -0.10522,-1.10598 0.1438,-2.31834 -0.31621,-3.31718 -0.55458,-1.20416 -2.38381,-1.62803 -2.57194,-2.95318 -0.5638,-3.97135 4.2716,-2.7499 4.37449,-6.25242 0.0195,-0.66397 -4.79669,-4.93144 -5.16247,-5.26803 -2.41317,-1.86202 1.65731,-2.45585 1.16845,-3.622 -0.39122,-0.9332 -2.69725,-0.38827 -2.56857,-1.40037 0.14082,-1.10748 2.08456,-0.61355 2.91351,-1.30356 0.44375,-0.36937 0.42931,-1.10553 0.64427,-1.65859 l 2.90842,-1.88631 c -0.83811,-0.12438 -4.268,-0.27998 -4.0718,-2.12836 0.12602,-1.18719 4.96872,-3.14338 4.1665,-5.30749 -3.32933,-8.98126 -4.7905,1.75223 -3.11473,-5.94761 0.0806,-0.93659 -0.22726,-2.01152 0.24181,-2.80971 0.70559,-1.2007 2.92866,-1.35651 3.03525,-2.76672 0.32082,-4.24459 -2.30464,-1.39115 -3.1756,-2.87965 -1.34514,-2.29888 -0.92558,-1.98758 -0.63242,-4.75343 1.10294,-0.42652 2.50926,-0.36907 3.3092,-1.28025 0.66708,-0.75987 0.23072,-2.07205 0.50727,-3.06793 0.31944,-1.15031 2.56223,-5.33865 1.39842,-6.8549 -7.32599,-9.54451 -4.97898,0.89738 -6.16014,-6.79573 -0.32216,-1.48509 0.92938,-2.83724 1.24116,-4.25674 -1.17626,-0.19476 -2.21641,-0.78159 -1.93105,-1.52768 0.24026,-0.6282 0.47315,-1.10941 0.70343,-1.5277 2e-4,-0.0118 -0.004,-0.0221 -0.004,-0.0341 0.003,-0.0465 0.0216,-0.0869 0.0305,-0.13089 0.0224,0.002 0.0434,0.0101 0.0659,0.0108 2.66572,-4.57349 4.53244,3.67224 3.33455,-0.75489 -0.18007,-1.06945 -0.81423,-2.16125 -0.53941,-3.2078 0.30459,-1.15985 1.76918,-1.68033 2.12383,-2.82407 1.12912,-3.6415 -0.28743,-2.78544 -1.78057,-3.65607 3e-4,-0.003 0.005,-0.006 0.005,-0.009 0.0898,-1.25734 0.006,-2.52068 0.008,-3.78158 1.3101,-1.08448 3.69602,-1.50981 3.93146,-3.25442 0.70436,-5.21923 -4.92925,-1.29719 -3.20943,-5.70733 0.91491,-2.34609 4.53408,-4.22382 3.62709,-6.57338 -2.01677,-5.22451 -7.60306,-7.94157 -10.932,-12.34706 -2.12897,-2.81745 -3.57416,-6.14563 -5.36201,-9.21815 -8.37948,-0.88839 -16.66615,-2.7491 -25.06836,-3.37813 -2.15602,-0.16141 -3.90653,1.84995 -6.1466,1.12246 -7.61277,-2.47235 -0.73061,-3.64899 -7.99143,-1.26592 -2.35856,-2.08773 -4.16146,-5.22926 -7.07495,-6.26318 -0.50486,-0.17915 -1.02307,-0.22652 -1.54722,-0.18288 z m 56.62151,61.30137 c -0.0309,0.053 -0.0619,0.0976 -0.093,0.1542 -0.0148,0.83894 1.17777,1.31824 1.29018,2.16064 0.0404,0.30294 0.002,0.59964 -0.0626,0.89474 1.93969,0.32119 4.24723,-0.42813 1.58612,-3.31358 -0.63408,-0.68754 -1.79105,0.1493 -2.72075,0.104 z m 0.11667,110.84018 c 0.34977,-1.32731 0.48924,-2.73185 0.4853,-4.09895 -8.6e-4,-0.39444 -0.98187,-0.28316 -1.11263,0.086 -0.33729,0.95254 8.2e-4,2.03435 0.002,3.05181 0.21899,0.30995 0.42185,0.63616 0.62565,0.96107 z m -17.0245,106.92956 c -0.68806,0.063 -1.37634,0.1201 -2.06464,0.1794 0.23458,1.1627 3.49847,1.6708 2.06464,-0.1794 z m -16.37348,0.6652 -3.01834,0.5522 c 0.83566,0.2836 1.69134,0.4793 2.57869,0.5399 0.61594,0.042 0.68062,-0.4274 0.43965,-1.0921 z m -51.17495,3.1774 c -0.20609,-0.7977 -0.39305,-1.6438 -0.9892,-1.6299 -2.20131,0.051 -2.94905,1.2634 -3.21112,2.2378 1.43259,-0.034 2.85313,-0.2368 4.20032,-0.6079 z m -6.64206,0.4876 c -1.47544,-2.3843 -2.37176,-3.9586 -2.92197,-4.9972 0,0 -0.002,0 -0.002,0 0.40512,1.3747 0.52473,3.2292 -1.15323,3.9932 1.29375,0.5161 2.67384,0.8386 4.07688,1.0023 z m -50.71163,-2.2645 c 0.3028,-0.8115 1.09124,-1.4068 1.33247,-1.5887 l -0.0456,-0.01 c -0.29154,0.1447 -1.24807,0.6363 -3.59157,1.6424 0.76622,-0.035 1.53603,-0.037 2.30476,-0.044 z m -15.6413,-1.7358 c -0.0601,-0.5129 -0.19479,-0.9635 -0.52759,-1.2587 -0.18076,0.417 -0.34134,0.8455 -0.49375,1.2785 0.34211,0.01 0.68422,0.01 1.02134,-0.02 z m -134.16008,1.4919 c -1.24057,-1.4667 -0.87148,-0.7819 0,0 z m -5.21828,-22.63575 c -1.07456,0.22154 -2.08959,0.33464 -2.78669,0.11297 -0.0388,-0.0123 -0.0671,-0.0421 -0.10315,-0.0592 -1.17351,1.16007 -2.29773,2.30034 -1.24791,2.54078 1.29312,0.29617 2.81428,0.36358 4.27809,0.15599 -0.78424,0.0937 -1.40632,0.0454 -1.37643,-0.61681 0.0629,-1.39331 4.17067,0.30948 3.82493,-1.03638 -0.35473,-1.38093 -2.69777,0.11368 -4.04644,0.17034 0.4877,-0.40365 1.42195,-0.55573 1.46268,-1.21033 9.3e-4,-0.0201 -0.005,-0.0378 -0.005,-0.0574 z m -3.87228,-7.69942 c 0.5096,-1.03189 1.0848,-2.13596 1.15154,-2.87251 0.0453,-0.49982 -0.41941,-1.40862 -0.85224,-1.20493 -0.67597,0.3181 -0.66968,1.39823 -1.02303,2.08712 -0.31015,0.60471 -0.64482,1.19383 -0.96722,1.79128 0.69159,0.0946 1.14758,0.13802 1.69095,0.19904 z m 0.52419,-182.45528 c 0.002,-0.0312 0.002,-0.0581 0.004,-0.0897 -0.2767,-1.29958 -0.27128,-1.18216 -0.004,0.0897 z m 12.13258,-47.48218 c 0.0871,-0.12827 0.17484,-0.2636 0.25702,-0.36221 -0.1783,-0.003 -0.33834,-0.0248 -0.51066,-0.0341 0.10258,0.13749 0.19268,0.27106 0.25364,0.39627 z m -0.25364,-0.39628 c -0.25769,-0.34537 -0.64173,-0.72693 -1.20566,-1.15473 -0.28593,-0.21691 -0.5036,0.52027 -0.75584,0.77999 -0.0109,0.034 -0.0143,0.0943 -0.0237,0.13447 0.60602,0.12059 1.2722,0.20192 1.98518,0.24027 z m -1.98517,-0.24027 c -0.4648,-0.0925 -0.90405,-0.19684 -1.30204,-0.31558 0.15025,0.742 0.32078,1.49332 0.77445,1.90245 0.40953,0.36931 0.38037,-0.94886 0.52759,-1.58687 z m -1.30204,-0.31558 c -0.20721,-1.02327 -0.37634,-2.0291 -1.1955,-2.09251 -0.62393,-0.0483 -0.60012,0.6455 -0.43796,1.49901 0.45549,0.19384 0.99436,0.40283 1.63346,0.5935 z m -1.63346,-0.5935 c -2.09272,-0.89053 -2.19089,-1.39661 0.41767,2.34175 0.003,-0.61677 -0.2669,-1.54818 -0.41767,-2.34175 z m 5.43133,1.18342 c 0.28109,0.005 0.58539,-0.021 0.88099,-0.0341 -0.0403,-0.16624 -0.0552,-0.23105 -0.10315,-0.42496 -0.22316,-0.0612 -0.48486,0.10751 -0.77784,0.45902 z m 0.88099,-0.0341 c 0.20178,0.83122 0.32198,1.31819 0.38723,1.54742 0.0444,-0.004 0.0869,-0.007 0.1319,-0.0108 0.0226,-0.31814 0.0548,-0.87846 0.16401,-1.56176 -0.23758,0.022 -0.45405,0.0149 -0.68314,0.0251 z m 0.68314,-0.0251 c 1.09865,-0.10189 2.28567,-0.33824 3.55439,-0.76026 1.3766,-0.45788 0.70535,-5.37663 -0.51236,-4.55618 -2.08616,1.40556 -2.784,3.70206 -3.04203,5.31644 z m 11.61684,0.78178 c 0.73341,-1.61643 1.08234,-2.41876 1.39165,-3.12531 -2.76277,-1.28476 -6.02908,-2.63457 -7.25248,-2.38837 -2.46839,0.49673 2.87848,5.39478 5.38398,5.59258 0.17811,0.0141 0.33266,-0.0215 0.47685,-0.0789 z m 38.97136,-1.35019 c 0.31563,-0.33164 0.61984,-0.55492 0.91312,-0.43929 1.42731,-1.95552 2.31649,-3.23925 2.9896,-4.23522 -1.84448,-0.19977 -3.69098,-0.0635 -5.36708,0.57199 -1.64181,0.62248 -0.0929,2.56429 1.46436,4.10252 z m 116.35944,-12.40625 c 0.12271,0.11007 0.23877,0.22958 0.35679,0.34608 0.24588,-0.23312 0.3015,-0.39157 -0.0659,-0.37297 -0.0974,0.005 -0.1937,0.0201 -0.29085,0.0269 z m -111.79894,7.80343 c 2.1525,0.33125 4.27228,1.1259 6.08404,2.21085 1.51783,0.90894 -2.98687,3.8102 -4.48102,2.85816 -1.9875,-1.26641 -1.96951,-3.43396 -1.60302,-5.06901 z m -41.83582,2.96932 c 1.01706,0.47769 1.58564,0.75776 2.28953,1.1117 -3.75684,8.44733 -0.49643,1.69032 -0.68652,-0.14344 -0.10898,-1.05133 -0.6326,2.01447 -1.08559,2.95677 -0.28298,0.58861 -1.08192,2.25969 -1.10419,1.59942 -0.0712,-2.11139 0.29429,-4.1788 0.58677,-5.52445 z m 275.48473,29.08712 c 0.0931,1.69461 0.19784,3.02828 0.24686,3.56104 -0.10833,-0.0834 -0.21661,-0.17825 -0.32296,-0.2869 -0.0972,-0.0993 -0.54024,-2.97452 -0.54111,-2.98187 0.17973,-0.11579 0.39407,-0.2072 0.61721,-0.29227 z m -297.70553,2.37761 c -2.70859,1.71799 -1.32091,0.61585 0,0 z m 15.34369,24.57577 c 0.0569,0.22972 0.11465,0.45435 0.17417,0.67418 -0.31883,-9.3e-4 -0.59782,-0.005 -0.95032,0 0.0169,-0.17937 0.0384,-0.41916 0.0559,-0.61322 0.25056,-0.0466 0.49004,-0.0687 0.72035,-0.0609 z m 1.92937,0.51641 c 0.15771,0.0612 0.32291,0.1232 0.50221,0.19544 -0.15982,-0.006 -0.29808,-0.005 -0.47346,-0.0108 -0.007,-0.0604 -0.0182,-0.12256 -0.0287,-0.18469 z m 179.65344,0.70108 c 0.68696,0.008 -1.05524,2.12366 -1.46436,1.53844 -0.26013,-0.37207 -0.26053,-0.92659 -0.19614,-1.51333 0.55324,-0.0182 1.10636,-0.0305 1.6605,-0.0251 z m -4.4455,0.19903 c -0.29977,0.42016 -0.64323,0.71648 -1.09574,0.69929 -0.33994,-0.0129 -0.57894,-0.21448 -0.76601,-0.51461 0.62042,-0.069 1.24076,-0.13064 1.86175,-0.18468 z m 18.11516,24.89673 c -0.49661,0.84065 -0.43882,0.68483 0,0 z m -118.441,59.56031 c 0.0202,-4.3e-4 0.0453,0.0222 0.0778,0.0699 0.20206,0.29689 0.37345,0.61481 0.52756,0.94316 -0.038,-0.0232 -0.0805,-0.0412 -0.14035,-0.0377 -0.17654,0.0105 -0.35153,0.0354 -0.52757,0.0502 -0.0126,-0.47164 -0.0439,-1.02335 0.0626,-1.02564 z m 0.73894,1.33405 c 0.0661,0.15692 0.13756,0.31053 0.19615,0.47158 -0.0636,0.038 -0.13756,0.0568 -0.21644,0.0663 0.0171,-0.19609 0.0299,-0.38357 0.0202,-0.53792 z m -23.08825,3.47855 c 0.0245,0.19751 0.0465,0.40977 0.0693,0.62218 -0.17868,-0.0901 -0.39812,-0.19031 -0.59523,-0.28509 0.20462,-0.11178 0.37648,-0.22459 0.52589,-0.33709 z m 19.51865,0.85529 c -0.45593,0.62417 -0.72571,1.01383 -1.06023,1.48646 0.0228,-0.44263 -0.0279,-0.91917 -0.10145,-1.40758 0.38833,-0.0207 0.7766,-0.042 1.16168,-0.0789 z m -2.44511,3.31358 c -0.11275,0.0625 -0.27729,0.14953 -0.37539,0.20263 0.0126,-0.0439 0.0258,-0.10472 0.0389,-0.15242 0.11363,-0.0136 0.22912,-0.0235 0.33651,-0.0502 z m -25.11739,50.15567 -0.19446,0.42495 c -0.0636,-0.1142 -0.13368,-0.20101 -0.19954,-0.30661 0.13353,-0.0371 0.27131,-0.07 0.394,-0.11834 z m 212.27358,56.80795 c 0.0584,-0.01 0.12252,0.01 0.19277,0.053 0.70382,0.448 1.28784,0.8475 1.79917,1.2174 -0.93989,0.1196 -1.87521,0.2631 -2.80697,0.4214 0.27351,-0.5567 0.43063,-1.6332 0.81503,-1.6908 z m 6.84497,0.5774 c 0.06,0 0.0617,0.011 -0.0304,0.027 -0.38913,0.067 -0.78246,0.1142 -1.17352,0.172 0.0209,-0.011 0.0388,-0.028 0.0609,-0.037 0.25941,-0.1116 0.963,-0.1677 1.14308,-0.1614 z m -151.51431,1.316 c 0.46077,0.049 0.84745,0.3439 1.20902,0.7065 -0.81082,-0.1547 -1.61812,-0.2882 -2.41467,-0.3425 0.45586,-0.3016 0.85066,-0.4015 1.20565,-0.364 z m -35.99698,5.1713 c 0.2358,0.035 0.48698,0.1198 0.74064,0.217 -0.24683,-0.072 -0.49381,-0.1445 -0.74064,-0.217 z"
       id="path4180"
       inkscape:connector-curvature="0" />
    <path
       style="opacity:1;fill:#ff6600;fill-opacity:1;fill-rule:nonzero;stroke:none;stroke-width:3;stroke-linecap:round;stroke-linejoin:round;stroke-miterlimit:4;stroke-dasharray:none;stroke-dashoffset:0"
       d="m 400.65299,705.77797 c 4.34411,-0.0481 7.1186,10.82719 2.77979,2.59902 15.9365,-0.13583 35.64629,-2.44972 48.89322,3.91509 55.6235,-2.18577 17.80971,58.99927 39.68976,75.6738 -8.18988,16.09281 4.04674,40.44617 -5.74452,43.29919 -4.14676,8.58765 9.17134,6.81255 1.18341,13.08904 7.1852,-1.83854 -7.48915,6.15023 -2.18383,12.72948 0.42363,9.64248 -4.60262,11.45129 -11.28539,10.44333 3.61449,2.54083 17.51265,4.74217 5.42699,7.86662 5.54497,5.07995 -9.93741,7.33194 0.96776,11.35003 -10.46726,2.76801 6.86473,2.71935 2.70536,12.01069 4.55965,7.8941 -12.5175,3.21417 -1.11686,7.42029 -6.67816,1.72429 5.13655,10.33095 0.007,15.1964 7.91446,11.01398 -10.41309,15.24104 -3.92501,27.46868 3.67621,17.84488 -4.00065,27.82808 -17.78374,34.87251 -29.21943,-4.11768 -82.33958,8.29618 -94.85497,-0.70873 -7.93571,2.86312 -16.00646,-3.09888 -5.96536,3.88229 -6.11032,5.8241 -20.92727,-0.0853 -25.21794,8.75139 -14.66698,-4.16565 -28.13819,-4.44521 -42.76173,-0.99302 -13.89921,4.78215 -28.66068,6.29783 -43.32873,5.98193 -11.53743,-3.31958 -15.93016,-12.77297 -29.347,-11.47443 -11.1105,2.06918 -27.33076,5.78735 -34.32134,-8.75478 -9.79903,-11.04268 -8.31107,-28.94108 -11.33046,-38.20077 -4.132,-5.1368 2.3135,-15.95113 -5.56033,-17.55605 9.09952,-1.34821 7.48785,-20.69217 -2.01756,-25.29759 10.43177,0.0459 -3.58655,-10.17229 5.78911,-11.89115 -11.34956,-4.90882 13.3063,-7.24015 -2.1251,-8.74199 -10.21673,-3.16701 13.62701,-1.82486 1.20839,-8.12366 5.66515,-11.61281 -10.68181,-24.80189 4.552,-34.6691 -10.46026,-1.61621 5.24863,-8.18653 0.36426,-14.36935 10.8049,-10.04455 8.01997,-28.57475 7.0622,-35.28485 -5.41472,-2.63938 8.50784,-5.08966 -1.67517,-7.12426 -6.51115,-7.32839 1.73194,-21.86019 -11.32398,-25.16685 14.60709,-8.89022 13.22592,-38.67066 36.3139,-34.08017 8.13277,2.63406 1.34024,-16.65045 10.96601,-6.479 -1.43713,-15.59031 8.28222,11.14341 8.73767,-5.19447 3.25043,-5.13255 11.57697,4.88958 11.41215,-4.53336 3.42542,13.71551 20.47898,3.52732 32.54829,6.82635 14.00377,3.62049 27.01408,-1.82437 39.44269,-4.08422 7.37349,9.63428 27.65041,1.42532 35.93239,2.43581 7.25316,7.31375 25.69726,1.34169 20.96158,-1.94057 6.69734,-2.52793 19.04825,2.44079 5.50827,3.62211 5.06559,2.35516 27.33091,-2.45937 12.86149,-5.53805 6.3145,-0.59546 9.96351,0.91458 16.55504,0.77237 z m -56.6758,-0.30969 c -229.31813,231.26261 -114.65906,115.63131 0,0 z m -70.39984,5.3095 c -13.92362,-5.17438 8.35296,-10.56428 0,0 z m -64.0108,3.69063 c 2.85669,11.53047 -9.91751,-3.82579 0,0 z m -3.36227,2.62225 c -0.99592,6.30138 -3.8643,-3.60297 0,0 z m -3.45526,0.5624 c -4.0136,-2.09307 -1.31153,-5.53034 0,0 z m -3.4498,-4.5744 c 290.01236,212.03885 145.00617,106.01942 0,0 z m -13.19016,93.32394 c 0.64494,2.33201 -3.09829,-0.51857 0,0 z m -17.42948,65.31344 c -4.61438,2.41117 -2.1261,-0.83333 0,0 z m 3.07601,40.05699 c -2.12921,0.61858 -2.92994,0.85122 0,0 z m -2.36489,0.84103 c 6.20527,5.56563 -7.81535,1.19373 0,0 z m 4.25754,34.06527 c -4.86663,4.46625 -2.93135,-2.87093 0,0 z m 39.39912,44.96283 c -142.031573,40.48004 -71.01579,20.24004 0,0 z m 77.37965,5.41544 0.21807,0.0872 z m 115.93821,-14.30956 c 4.23752,5.20286 -8.41424,0.62221 0,0 z m -3.22188,2.56414 c -2.00317,0.2386 -4.5823,0.54582 0,0 z m 8.8287,-0.6615 c -2.03665,-6.89149 3.93013,-0.47532 0,0 z m 74.26171,-81.71841 2.26457,-0.15678 z m -4.91941,-32.30629 c -3.73595,-0.45639 3.47759,-1.80119 0,0 z m -1.93823,-0.97778 c -6.75125,-2.43726 5.44238,-5.01372 0,0 z m 7.14938,-20.05489 c 1.51252,-2.6952 1.81898,0.88846 0,0 z m 0.94268,-18.09761 c 1.08906,-0.65461 0.99175,1.72518 0,0 z m 0.86792,0.28718 0.80227,0.26668 z m 0.80227,0.26668 0.86379,0.15356 z m -2.60557,-26.15751 c 3.52286,-0.40041 4.93673,-0.56112 0,0 z m -1.53527,-61.551 c -323.33168,205.34743 -161.66584,102.67372 0,0 z m -8.82505,-25.97974 1.78063,0.89938 z m -1.3584,0.54872 c -0.16612,1.90883 -0.38256,4.39581 0,0 z m 10.33478,50.73894 c 1.64196,0.27997 0.97121,0.1656 0,0 z m 4.66396,35.8718 c -326.54187,164.56095 -163.27094,82.28048 0,0 z m -13.3796,65.58214 -0.33042,0.10152 z m -2.0203,81.39157 c -3.68529,5.0262 1.50192,3.04402 0,0 z"
       id="path4187"
       inkscape:connector-curvature="0"
       sodipodi:nodetypes="ccccccccccccccccccccccccccccccccccccccccccccccccccccccccccccccccccccccccccccccccccccccccccccccccccccccccccccccccc" />
  </g>
</svg>
